<svg width="24.332184" height="45.995911" viewBox="0 0 24.3322 45.9959" fill="none" xmlns="http://www.w3.org/2000/svg" xmlns:xlink="http://www.w3.org/1999/xlink">
	<desc>
			Created with Pixso.
	</desc>
	<defs/>
	<path id="Vector" d="M23.77 34.09C23.41 33.73 22.92 33.53 22.41 33.53C21.9 33.53 21.42 33.73 21.06 34.09L14.09 41.05L14.09 1.91C14.09 1.4 13.89 0.92 13.53 0.56C13.17 0.2 12.68 0 12.18 0C11.67 0 11.18 0.2 10.82 0.56C10.46 0.92 10.26 1.4 10.26 1.91L10.26 41.03L3.32 34.09C3.15 33.9 2.94 33.75 2.7 33.64C2.47 33.53 2.21 33.48 1.95 33.47C1.69 33.46 1.44 33.51 1.2 33.61C0.96 33.7 0.74 33.85 0.56 34.03C0.37 34.21 0.23 34.43 0.13 34.67C0.04 34.91 -0.01 35.17 0 35.42C0 35.68 0.06 35.94 0.16 36.17C0.27 36.41 0.42 36.62 0.61 36.8L8.12 44.31C8.66 44.84 9.29 45.26 9.99 45.55C10.69 45.84 11.44 45.99 12.19 45.99C12.95 45.99 13.69 45.84 14.39 45.55C15.09 45.26 15.72 44.84 16.26 44.31L23.77 36.8C24.13 36.44 24.33 35.95 24.33 35.44C24.33 34.93 24.13 34.45 23.77 34.09Z" fill="#C0A9F0" fill-opacity="1.000000" fill-rule="nonzero"/>
</svg>
