<svg width="80.000000" height="80.000000" viewBox="0 0 80 80" fill="none" xmlns="http://www.w3.org/2000/svg" xmlns:xlink="http://www.w3.org/1999/xlink">
	<desc>
			Created with Pixso.
	</desc>
	<defs>
		<clipPath id="clip131_714">
			<rect id="chat 1" rx="0.000000" width="79.000000" height="79.000000" transform="matrix(-1 0 0 1 80.5 0.5)" fill="white" fill-opacity="0"/>
		</clipPath>
	</defs>
	<rect id="chat 1" rx="0.000000" width="79.000000" height="79.000000" transform="matrix(-1 0 0 1 80.5 0.5)" fill="#FFFFFF" fill-opacity="0"/>
	<g clip-path="url(#clip131_714)">
		<path id="Vector" d="M56.95 0L73.52 9.62L73.52 50.85L51.34 63.66L48.29 70.02L44.32 67.71L23.04 80L6.47 70.37L6.47 29.14L56.95 0Z" fill="#58948E" fill-opacity="1.000000" fill-rule="nonzero"/>
		<path id="Vector" d="M45.22 67.19L28.65 57.56L31.72 60.39L48.29 70.02L45.22 67.19Z" fill="#58948E" fill-opacity="1.000000" fill-rule="nonzero"/>
		<path id="Vector" d="M23.04 38.77L6.47 29.14L6.47 70.37L23.04 80L23.04 38.77Z" fill="#7421B0" fill-opacity="1.000000" fill-rule="nonzero"/>
		<path id="Vector" d="M73.52 9.62L56.95 0L6.47 29.14L23.04 38.77L73.52 9.62Z" fill="#C0A9F0" fill-opacity="1.000000" fill-rule="nonzero"/>
		<path id="Vector" d="M23.04 38.77L23.04 80L45.22 67.19L48.29 70.02L51.34 63.66L73.52 50.85L73.52 9.62L23.04 38.77Z" fill="#E7DBFF" fill-opacity="1.000000" fill-rule="nonzero"/>
		<path id="Vector" d="M64.6 30.18C65.83 29.46 66.95 29.4 67.76 29.87L71.17 31.83C71.17 31.83 71.16 31.83 71.16 31.83C71.96 32.29 72.46 33.27 72.46 34.68C72.47 37.5 70.49 40.93 68.04 42.35C66.77 43.08 65.62 43.13 64.81 42.61C64.83 42.63 64.85 42.64 64.88 42.66L61.47 40.69C60.67 40.23 60.18 39.24 60.17 37.84C60.17 35.03 62.15 31.59 64.6 30.18Z" fill="#E0E0E2" fill-opacity="1.000000" fill-rule="nonzero"/>
		<path id="Vector" d="M49.3 39.01C50.54 38.3 51.65 38.23 52.46 38.7L55.87 40.66C55.87 40.66 55.87 40.66 55.86 40.66C56.66 41.12 57.16 42.11 57.17 43.51C57.17 46.33 55.19 49.76 52.74 51.18C51.47 51.91 50.32 51.96 49.51 51.45C49.53 51.46 49.55 51.48 49.58 51.49L46.17 49.53C45.37 49.06 44.88 48.08 44.87 46.68C44.87 43.86 46.85 40.43 49.3 39.01Z" fill="#E0E0E2" fill-opacity="1.000000" fill-rule="nonzero"/>
		<path id="Vector" d="M34 47.84C35.24 47.13 36.36 47.06 37.16 47.53L40.57 49.5C40.57 49.49 40.57 49.49 40.56 49.49C41.37 49.95 41.86 50.94 41.87 52.34C41.87 55.16 39.89 58.6 37.44 60.01C36.17 60.75 35.02 60.79 34.21 60.28C34.23 60.29 34.26 60.31 34.28 60.32L30.87 58.36C30.07 57.9 29.58 56.91 29.58 55.51C29.57 52.69 31.55 49.26 34 47.84Z" fill="#E0E0E2" fill-opacity="1.000000" fill-rule="nonzero"/>
		<path id="Vector" d="M68.01 32.14C65.56 33.56 63.57 36.99 63.58 39.81C63.59 42.63 65.59 43.76 68.04 42.35C70.49 40.93 72.47 37.5 72.47 34.68C72.46 31.86 70.46 30.72 68.01 32.14Z" fill="#F9F7FF" fill-opacity="1.000000" fill-rule="nonzero"/>
		<path id="Vector" d="M52.71 40.97C50.26 42.39 48.27 45.82 48.28 48.64C48.29 51.46 50.29 52.6 52.74 51.18C55.19 49.76 57.17 46.33 57.17 43.51C57.16 40.69 55.16 39.56 52.71 40.97Z" fill="#F9F7FF" fill-opacity="1.000000" fill-rule="nonzero"/>
		<path id="Vector" d="M64.6 30.18C65.83 29.46 66.95 29.4 67.76 29.87L71.17 31.83C70.36 31.36 69.24 31.43 68.01 32.14C65.56 33.56 63.57 36.99 63.58 39.81C63.59 41.21 64.08 42.19 64.88 42.66L61.47 40.69C60.67 40.23 60.18 39.24 60.17 37.84C60.17 35.03 62.15 31.59 64.6 30.18Z" fill="#C0A9F0" fill-opacity="1.000000" fill-rule="nonzero"/>
		<path id="Vector" d="M49.3 39.01C50.54 38.3 51.65 38.23 52.46 38.7L55.87 40.66C55.06 40.19 53.94 40.26 52.71 40.97C50.26 42.39 48.27 45.82 48.28 48.64C48.29 50.04 48.78 51.03 49.58 51.49L46.17 49.53C45.37 49.06 44.88 48.08 44.87 46.68C44.87 43.86 46.85 40.43 49.3 39.01Z" fill="#C0A9F0" fill-opacity="1.000000" fill-rule="nonzero"/>
		<path id="Vector" d="M34 47.84C35.24 47.13 36.36 47.06 37.16 47.53L40.57 49.5C39.76 49.03 38.65 49.09 37.41 49.81C34.96 51.22 32.98 54.65 32.98 57.47C32.99 58.87 33.48 59.86 34.28 60.32L30.87 58.36C30.07 57.9 29.58 56.91 29.58 55.51C29.57 52.69 31.55 49.26 34 47.84Z" fill="#C0A9F0" fill-opacity="1.000000" fill-rule="nonzero"/>
		<path id="Vector" d="M37.41 49.81C34.96 51.22 32.98 54.65 32.98 57.47C32.99 60.29 34.99 61.43 37.44 60.01C39.89 58.6 41.87 55.16 41.87 52.34C41.86 49.53 39.86 48.39 37.41 49.81Z" fill="#F9F7FF" fill-opacity="1.000000" fill-rule="nonzero"/>
	</g>
</svg>
