<svg width="80.000000" height="80.000000" viewBox="0 0 80 80" fill="none" xmlns="http://www.w3.org/2000/svg" xmlns:xlink="http://www.w3.org/1999/xlink">
	<desc>
			Created with Pixso.
	</desc>
	<defs>
		<clipPath id="clip151_58">
			<rect id="002-cloud-computing" rx="0.000000" width="79.000000" height="79.000000" transform="matrix(-1 0 0 1 80.5 0.5)" fill="white" fill-opacity="0"/>
		</clipPath>
	</defs>
	<rect id="002-cloud-computing" rx="0.000000" width="79.000000" height="79.000000" transform="matrix(-1 0 0 1 80.5 0.5)" fill="#FFFFFF" fill-opacity="0"/>
	<g clip-path="url(#clip151_58)">
		<path id="Vector" d="M6.85 46.27C6.31 45.54 6 44.5 6 43.21C5.99 39.37 8.69 34.69 12.03 32.76C13.39 31.98 14.64 31.77 15.65 32.05C18.36 22.01 25.43 11.89 33.75 7.09C39.13 3.99 44 3.7 47.52 5.74L57.77 11.7C59.36 11.48 60.78 11.73 61.95 12.41L76.58 20.91C76.57 20.91 76.57 20.9 76.56 20.9C78.67 22.12 79.98 24.72 80 28.42C80.02 35.85 74.79 44.89 68.33 48.63L23.89 74.28C21.25 75.81 18.86 75.91 17.17 74.84C17.22 74.87 17.27 74.9 17.32 74.93L2.69 66.43C1.03 65.46 0 63.42 0 60.51C-0.02 55.58 2.89 49.75 6.85 46.27Z" fill="#C3DFF7" fill-opacity="1.000000" fill-rule="nonzero"/>
		<path id="Vector" d="M76.58 20.91L61.95 12.41C59.82 11.17 56.88 11.35 53.62 13.23C53.32 13.4 53.03 13.59 52.73 13.78L67.36 22.28C67.65 22.09 67.95 21.9 68.25 21.73C71.5 19.85 74.45 19.67 76.58 20.91Z" fill="#E7DBFF" fill-opacity="1.000000" fill-rule="nonzero"/>
		<path id="Vector" d="M62.15 14.25L47.52 5.75C44 3.7 39.13 3.99 33.75 7.09L48.38 15.59C53.75 12.49 58.63 12.2 62.15 14.25Z" fill="#E7DBFF" fill-opacity="1.000000" fill-rule="nonzero"/>
		<path id="Vector" d="M2.69 66.43L17.32 74.93C15.66 73.96 14.63 71.92 14.62 69.01C14.61 64.08 17.52 58.25 21.48 54.77L6.85 46.27C2.89 49.75 -0.02 55.58 0 60.51C0 63.42 1.03 65.46 2.69 66.43Z" fill="#E7DBFF" fill-opacity="1.000000" fill-rule="nonzero"/>
		<path id="Vector" d="M48.38 15.59L33.75 7.09C25.43 11.89 18.36 22.01 15.65 32.05L30.27 40.55C32.99 30.51 40.06 20.39 48.38 15.59Z" fill="#E7DBFF" fill-opacity="1.000000" fill-rule="nonzero"/>
		<path id="Vector" d="M30.27 40.55L15.65 32.05C14.64 31.77 13.38 31.98 12.03 32.76C8.69 34.69 5.99 39.37 6 43.21C6 44.5 6.31 45.54 6.85 46.27L21.48 54.77C20.94 54.04 20.63 53.01 20.63 51.71C20.62 47.87 23.32 43.19 26.66 41.26C28.01 40.48 29.26 40.27 30.27 40.55Z" fill="#E7DBFF" fill-opacity="1.000000" fill-rule="nonzero"/>
		<path id="Vector" d="M48.38 15.59C40.06 20.39 32.99 30.51 30.27 40.55C29.26 40.27 28.01 40.48 26.66 41.26C23.32 43.19 20.62 47.87 20.63 51.71C20.63 53.01 20.94 54.04 21.48 54.77C17.52 58.25 14.61 64.08 14.62 69.01C14.64 74.87 18.79 77.23 23.89 74.28L68.33 48.63C74.79 44.89 80.02 35.85 80 28.42C79.97 20.99 74.72 17.99 68.25 21.73C67.95 21.9 67.66 22.09 67.36 22.28C65.48 13.29 57.69 10.22 48.38 15.59Z" fill="#C0A9F0" fill-opacity="1.000000" fill-rule="nonzero"/>
		<path id="Vector" d="M36.4 50.58L48.05 27.69L53.8 31.03L65.54 40.42L58.79 44.32L58.84 62.49L48.96 68.2L43.2 64.85L43.17 53.33L42.15 53.92L36.4 50.58Z" fill="#1A6FB0" fill-opacity="1.000000" fill-rule="nonzero"/>
		<path id="Vector" d="M48.9 50.02L43.15 46.68L43.2 64.85L48.96 68.2L48.9 50.02Z" fill="#551981" fill-opacity="1.000000" fill-rule="nonzero"/>
		<path id="Vector" d="M53.8 31.03L48.05 27.69L36.4 50.58L42.15 53.92L53.8 31.03Z" fill="#9247C9" fill-opacity="1.000000" fill-rule="nonzero"/>
		<path id="Vector" d="M53.8 31.03L42.15 53.92L48.9 50.02L48.96 68.2L58.84 62.49L58.79 44.32L65.54 40.42L53.8 31.03Z" fill="#7421B0" fill-opacity="1.000000" fill-rule="nonzero"/>
	</g>
</svg>
