<svg width="80.000000" height="80.000000" viewBox="0 0 80 80" fill="none" xmlns="http://www.w3.org/2000/svg" xmlns:xlink="http://www.w3.org/1999/xlink">
	<desc>
			Created with Pixso.
	</desc>
	<defs>
		<clipPath id="clip151_0">
			<rect id="002-cubes" rx="0.000000" width="79.000000" height="79.000000" transform="translate(0.500000 0.500000)" fill="white" fill-opacity="0"/>
		</clipPath>
	</defs>
	<rect id="002-cubes" rx="0.000000" width="79.000000" height="79.000000" transform="translate(0.500000 0.500000)" fill="#FFFFFF" fill-opacity="0"/>
	<g clip-path="url(#clip151_0)">
		<path id="Vector" d="M53.33 10.29L53.33 24.99L40.04 32.71L26.66 24.99L26.66 10.29L40.04 2.57L53.33 10.29Z" fill="#E7DBFF" fill-opacity="1.000000" fill-rule="nonzero"/>
		<path id="Vector" d="M53.33 10.29L53.33 24.99L40.04 32.71L40.04 18.02L53.33 10.29Z" fill="#551981" fill-opacity="1.000000" fill-rule="nonzero"/>
		<path id="Vector" d="M40.04 18.02L40.04 32.71L26.66 24.99L26.66 10.29L40.04 18.02Z" fill="#C0A9F0" fill-opacity="1.000000" fill-rule="nonzero"/>
		<path id="Vector" d="M53.33 55L53.33 69.7L40.04 77.42L26.66 69.7L26.66 55L40.04 47.28L53.33 55Z" fill="#E7DBFF" fill-opacity="1.000000" fill-rule="nonzero"/>
		<path id="Vector" d="M53.33 55L53.33 69.7L40.04 77.42L40.04 62.73L53.33 55Z" fill="#551981" fill-opacity="1.000000" fill-rule="nonzero"/>
		<path id="Vector" d="M40.04 62.73L40.04 77.42L26.66 69.7L26.66 55L40.04 62.73Z" fill="#C0A9F0" fill-opacity="1.000000" fill-rule="nonzero"/>
		<path id="Vector" d="M26.66 55L26.66 69.7L13.37 77.42L0 69.7L0 55L13.37 47.28L26.66 55Z" fill="#E7DBFF" fill-opacity="1.000000" fill-rule="nonzero"/>
		<path id="Vector" d="M26.66 55L26.66 69.7L13.37 77.42L13.37 62.73L26.66 55Z" fill="#551981" fill-opacity="1.000000" fill-rule="nonzero"/>
		<path id="Vector" d="M13.37 62.73L13.37 77.42L0 69.7L0 55L13.37 62.73Z" fill="#C0A9F0" fill-opacity="1.000000" fill-rule="nonzero"/>
		<path id="Vector" d="M80 55L80 69.7L66.71 77.42L53.33 69.7L53.33 55L66.71 47.28L80 55Z" fill="#E7DBFF" fill-opacity="1.000000" fill-rule="nonzero"/>
		<path id="Vector" d="M79.99 55L79.99 69.7L66.71 77.42L66.71 62.73L79.99 55Z" fill="#551981" fill-opacity="1.000000" fill-rule="nonzero"/>
		<path id="Vector" d="M66.71 62.73L66.71 77.42L53.33 69.7L53.33 55L66.71 62.73Z" fill="#C0A9F0" fill-opacity="1.000000" fill-rule="nonzero"/>
		<path id="Vector" d="M66.66 32.57L66.66 47.27L53.37 54.99L40.04 47.27L40.04 32.57L53.37 24.85L66.66 32.57Z" fill="#E7DBFF" fill-opacity="1.000000" fill-rule="nonzero"/>
		<path id="Vector" d="M66.66 32.57L66.66 47.27L53.37 54.99L53.37 40.29L66.66 32.57Z" fill="#551981" fill-opacity="1.000000" fill-rule="nonzero"/>
		<path id="Vector" d="M53.37 40.29L53.37 54.99L40.04 47.27L40.04 32.57L53.37 40.29Z" fill="#C0A9F0" fill-opacity="1.000000" fill-rule="nonzero"/>
		<path id="Vector" d="M40.04 32.57L40.04 47.27L26.71 54.99L13.33 47.27L13.33 32.57L26.71 24.85L40.04 32.57Z" fill="#E7DBFF" fill-opacity="1.000000" fill-rule="nonzero"/>
		<path id="Vector" d="M40.04 32.57L40.04 47.27L26.71 54.99L26.71 40.29L40.04 32.57Z" fill="#551981" fill-opacity="1.000000" fill-rule="nonzero"/>
		<path id="Vector" d="M26.71 40.29L26.71 54.99L13.33 47.27L13.33 32.57L26.71 40.29Z" fill="#C0A9F0" fill-opacity="1.000000" fill-rule="nonzero"/>
	</g>
</svg>
