<svg width="2073.414307" height="967.235352" viewBox="0 0 2073.41 967.235" fill="none" xmlns="http://www.w3.org/2000/svg" xmlns:xlink="http://www.w3.org/1999/xlink">
	<desc>
			Created with Pixso.
	</desc>
	<defs>
		<linearGradient x1="2072.414062" y1="1.000977" x2="-47.433594" y2="828.982910" id="paint_linear_104_104_0" gradientUnits="userSpaceOnUse">
			<stop stop-color="#FF59F8"/>
			<stop offset="0.197917" stop-color="#AE72FF"/>
			<stop offset="0.406250" stop-color="#90E9ED"/>
			<stop offset="0.619792" stop-color="#5CD167"/>
			<stop offset="0.825321" stop-color="#FFEE00"/>
		</linearGradient>
	</defs>
	<path id="DecorativeLine" d="M2072.4 1C2036.37 239.45 1999.92 441.02 1889.56 499.16C1779.19 557.3 1684.45 454.2 1604.78 485.32C1525.1 516.44 1508.45 587.36 1503.34 650.01C1498.24 712.66 1487.31 836.1 1390.76 873.81C1294.19 911.52 1204.01 820.07 1161.68 783.46C1119.38 746.84 1017.08 676.22 926.6 711.56C836.12 746.9 830.14 811.28 741.74 837.98C653.33 864.68 590.68 793.92 501.55 828.73C412.42 863.54 477.5 910.31 370.32 952.99C263.14 995.67 219 925.5 129.5 892C40 858.5 1 952.99 1 952.99" stroke="url(#paint_linear_104_104_0)" stroke-opacity="1.000000" stroke-width="2.000000" stroke-linejoin="round" stroke-linecap="round"/>
</svg>
