<svg width="2474.369629" height="485.208984" viewBox="0 0 2474.37 485.209" fill="none" xmlns="http://www.w3.org/2000/svg" xmlns:xlink="http://www.w3.org/1999/xlink">
	<desc>
			Created with Pixso.
	</desc>
	<defs>
		<linearGradient x1="1.003540" y1="1.002930" x2="2473.369141" y2="1.002930" id="paint_linear_153_635_0" gradientUnits="userSpaceOnUse">
			<stop stop-color="#FF59F8"/>
			<stop offset="0.197917" stop-color="#AE72FF"/>
			<stop offset="0.406250" stop-color="#90E9ED"/>
			<stop offset="0.619792" stop-color="#5CD167"/>
			<stop offset="0.825321" stop-color="#FFEE00"/>
		</linearGradient>
	</defs>
	<g opacity="0.500000">
		<path id="DecorativeLine" d="M1 1C131.72 210 206.34 293.7 341 307.7C475.66 321.7 529.08 282 622 282C714.92 282 803.44 342 833.37 398.5C863.29 455 908.89 484.2 1021.5 484.2C1134.11 484.2 1203.49 448 1231.84 398.5C1260.18 349 1335.79 246 1441.31 246C1546.83 246 1653.49 338 1753.5 330.7C1853.51 323.41 1895.56 177.2 1999.5 177.2C2103.45 177.2 2057.64 281.24 2182.97 282C2308.3 282.76 2314.23 180.76 2391.56 117C2468.87 53.23 2473.37 134.13 2473.37 134.13" stroke="url(#paint_linear_153_635_0)" stroke-opacity="1.000000" stroke-width="2.000000" stroke-linejoin="round" stroke-linecap="round"/>
	</g>
</svg>
