<svg width="80.000000" height="80.000000" viewBox="0 0 80 80" fill="none" xmlns="http://www.w3.org/2000/svg" xmlns:xlink="http://www.w3.org/1999/xlink">
	<desc>
			Created with Pixso.
	</desc>
	<defs>
		<clipPath id="clip140_8">
			<rect id="fullscreen 1" rx="0.000000" width="79.000000" height="79.000000" transform="translate(0.500000 0.500000)" fill="white" fill-opacity="0"/>
		</clipPath>
	</defs>
	<rect id="fullscreen 1" rx="0.000000" width="79.000000" height="79.000000" transform="translate(0.500000 0.500000)" fill="#FFFFFF" fill-opacity="0"/>
	<g clip-path="url(#clip140_8)">
		<path id="Vector" d="M63.29 55.14L61.5 39.86C61.46 39.43 61.29 39.17 61.05 39.05L61.06 39.04L55.02 35.59C55 35.58 54.99 35.57 54.97 35.56L54.94 35.54L54.94 35.55C54.45 35.33 53.73 35.72 53.23 36.67L51.14 40.67C51.06 40.61 50.98 40.56 50.89 40.52L44.94 37.11L44.94 37.11C43.43 36.23 41.14 37.64 39.71 40.38C38.21 43.25 38.21 46.5 39.71 47.63L45.29 51.85L42.78 56.64C42.16 57.82 42.34 59.02 43.01 59.19L48.9 62.58C49.08 62.71 49.31 62.73 49.59 62.62L61.82 57.94C62.68 57.62 63.42 56.21 63.29 55.14Z" fill="#551981" fill-opacity="1.000000" fill-rule="nonzero"/>
		<path id="Vector" d="M49.59 62.63L61.83 57.94C62.68 57.62 63.42 56.21 63.29 55.14L61.5 39.86C61.35 38.55 60.06 38.72 59.31 40.16L56.81 44.94L51.23 40.73C49.73 39.59 47.29 41 45.79 43.87C44.29 46.74 44.29 49.98 45.79 51.12L51.37 55.33L48.86 60.12C48.11 61.56 48.54 63.03 49.59 62.63Z" fill="#C0A9F0" fill-opacity="1.000000" fill-rule="nonzero"/>
		<path id="Vector" d="M40.15 32.36L34.58 28.14L37.08 23.35C37.64 22.28 37.55 21.19 37.03 20.87L37.02 20.87C37.02 20.87 37.01 20.87 37.01 20.86L30.95 17.39C30.94 17.38 30.93 17.38 30.92 17.37L30.9 17.36L30.9 17.37C30.73 17.28 30.52 17.27 30.27 17.36L18.04 22.05C17.18 22.37 16.45 23.78 16.57 24.85L18.36 40.13C18.41 40.58 18.6 40.85 18.85 40.96L18.84 40.96L24.83 44.39L24.83 44.39C25.31 44.71 26.1 44.33 26.63 43.32L28.72 39.32C28.76 39.35 28.81 39.38 28.85 39.4L34.86 42.84C34.87 42.85 34.88 42.86 34.9 42.87L34.98 42.91L34.98 42.91C36.49 43.72 38.74 42.31 40.15 39.61C41.66 36.74 41.66 33.49 40.15 32.36Z" fill="#551981" fill-opacity="1.000000" fill-rule="nonzero"/>
		<path id="Vector" d="M62.85 3.56L62.85 3.56L56.8 0.09L56.8 0.1C56.52 -0.08 56.15 -0.04 55.74 0.28L43.51 9.72C42.46 10.53 42.03 12.5 42.78 13.06L45.29 14.96L39.71 25.62C38.21 28.49 38.21 31.73 39.71 32.87C39.84 32.97 39.99 33.05 40.14 33.12L45.93 36.45C45.94 36.46 45.96 36.46 45.97 36.47L45.97 36.47C47.48 37.37 49.79 35.97 51.23 33.21L56.81 22.55L59.31 24.45C60.06 25.02 61.35 23.7 61.5 22.21L63.29 4.87C63.36 4.21 63.17 3.75 62.85 3.56Z" fill="#551981" fill-opacity="1.000000" fill-rule="nonzero"/>
		<path id="Vector" d="M40.15 47.12C40.09 47.07 40.02 47.03 39.95 46.98L39.95 46.98L33.94 43.55C33.89 43.51 33.83 43.48 33.77 43.45L33.77 43.45C32.26 42.69 30.04 44.09 28.64 46.78L23.06 57.43L20.55 55.54C19.8 54.97 18.51 56.28 18.36 57.78L16.57 75.12C16.5 75.78 16.69 76.24 17.01 76.42L17.01 76.43L23.11 79.92L23.11 79.92C23.38 80.06 23.74 80.01 24.12 79.71L36.35 70.27C37.41 69.46 37.83 67.49 37.08 66.92L34.58 65.03L40.15 54.37C41.66 51.5 41.66 48.25 40.15 47.12Z" fill="#551981" fill-opacity="1.000000" fill-rule="nonzero"/>
		<path id="Vector" d="M36.35 20.85L24.12 25.53C23.26 25.86 22.53 27.26 22.65 28.33L24.44 43.61C24.59 44.93 25.88 44.75 26.63 43.32L29.14 38.53L34.72 42.75C36.22 43.88 38.65 42.48 40.15 39.61C41.66 36.74 41.66 33.49 40.15 32.36L34.58 28.14L37.08 23.35C37.83 21.91 37.41 20.44 36.35 20.85Z" fill="#C0A9F0" fill-opacity="1.000000" fill-rule="nonzero"/>
		<path id="Vector" d="M61.5 22.21L63.29 4.87C63.42 3.65 62.68 3.1 61.83 3.76L49.59 13.21C48.54 14.02 48.11 15.98 48.86 16.55L51.37 18.44L45.79 29.1C44.29 31.97 44.29 35.22 45.79 36.35C47.29 37.49 49.73 36.08 51.23 33.21L56.81 22.56L59.31 24.45C60.06 25.02 61.35 23.7 61.5 22.21Z" fill="#C0A9F0" fill-opacity="1.000000" fill-rule="nonzero"/>
		<path id="Vector" d="M24.44 61.26L22.65 78.6C22.53 79.82 23.26 80.37 24.12 79.71L36.35 70.27C37.41 69.45 37.83 67.49 37.08 66.92L34.58 65.03L40.15 54.37C41.66 51.5 41.66 48.25 40.15 47.12C38.65 45.98 36.22 47.39 34.72 50.26L29.14 60.92L26.63 59.02C25.88 58.46 24.59 59.77 24.44 61.26Z" fill="#C0A9F0" fill-opacity="1.000000" fill-rule="nonzero"/>
	</g>
</svg>
