<svg width="80.000000" height="80.000000" viewBox="0 0 80 80" fill="none" xmlns="http://www.w3.org/2000/svg" xmlns:xlink="http://www.w3.org/1999/xlink">
	<desc>
			Created with Pixso.
	</desc>
	<defs>
		<clipPath id="clip131_200">
			<rect id="002-heart" rx="0.000000" width="79.000000" height="79.000000" transform="matrix(-1 0 0 1 80.5 0.5)" fill="white" fill-opacity="0"/>
		</clipPath>
	</defs>
	<rect id="002-heart" rx="0.000000" width="79.000000" height="79.000000" transform="matrix(-1 0 0 1 80.5 0.5)" fill="#FFFFFF" fill-opacity="0"/>
	<g clip-path="url(#clip131_200)">
		<path id="Vector" d="M17.52 17.67C21.99 15.09 26.04 14.86 28.97 16.56L31.12 17.81C34.01 11.32 38.84 5.37 44.32 2.2C48.79 -0.38 52.84 -0.62 55.77 1.08L73.82 11.57C73.81 11.56 73.8 11.56 73.79 11.55C76.69 13.23 78.5 16.8 78.51 21.89C78.56 40.42 50.61 78.02 49.13 80C48.31 79.84 39.2 78.14 31.3 73.44C31.41 73.51 31.53 73.58 31.64 73.64L13.59 63.16C7.2 59.44 1.5 53.79 1.48 45.46C1.45 35.24 8.63 22.81 17.52 17.67Z" fill="#FE0B37" fill-opacity="1.000000" fill-rule="nonzero"/>
		<path id="Vector" d="M73.82 11.57L55.77 1.08C52.84 -0.62 48.79 -0.38 44.32 2.2C38.73 5.43 33.81 11.55 30.94 18.19L48.99 28.68C51.86 22.04 56.77 15.92 62.36 12.69C66.84 10.11 70.89 9.87 73.82 11.57Z" fill="#C0A9F0" fill-opacity="1.000000" fill-rule="nonzero"/>
		<path id="Vector" d="M47.01 27.04L28.97 16.56C26.04 14.86 21.99 15.09 17.52 17.67L35.57 28.16C40.04 25.58 44.09 25.34 47.01 27.04Z" fill="#E7DBFF" fill-opacity="1.000000" fill-rule="nonzero"/>
		<path id="Vector" d="M13.59 63.16L31.64 73.64C25.25 69.93 19.55 64.28 19.53 55.94C19.5 45.73 26.68 33.29 35.57 28.16L17.52 17.67C8.63 22.81 1.45 35.24 1.48 45.46C1.5 53.79 7.2 59.44 13.59 63.16Z" fill="#C0A9F0" fill-opacity="1.000000" fill-rule="nonzero"/>
		<path id="Vector" d="M35.57 28.16C26.68 33.29 19.5 45.73 19.53 55.94C19.58 74.47 47.66 79.72 49.13 80C50.61 78.02 78.56 40.42 78.51 21.89C78.48 11.68 71.25 7.56 62.36 12.69C56.77 15.92 51.86 22.04 48.99 28.68C46.09 25.37 41.16 24.93 35.57 28.16Z" fill="#7421B0" fill-opacity="1.000000" fill-rule="nonzero"/>
	</g>
</svg>
