<svg width="250.000000" height="39.000000" viewBox="0 0 250 39" fill="none" xmlns="http://www.w3.org/2000/svg" xmlns:xlink="http://www.w3.org/1999/xlink">
	<desc>
			Created with Pixso.
	</desc>
	<defs>
		<clipPath id="clip301_63">
			<rect id="logo 1" rx="0.000000" width="249.000000" height="38.000000" transform="translate(0.500000 0.500000)" fill="white" fill-opacity="0"/>
		</clipPath>
	</defs>
	<rect id="logo 1" rx="0.000000" width="249.000000" height="38.000000" transform="translate(0.500000 0.500000)" fill="#FFFFFF" fill-opacity="0"/>
	<g clip-path="url(#clip301_63)">
		<path id="Vector" d="M58.96 15.89C58.98 16.85 58.78 17.81 58.38 18.68C58 19.47 57.44 20.14 56.74 20.65C55.99 21.19 55.14 21.58 54.24 21.8C53.2 22.05 52.14 22.18 51.07 22.17C50.09 22.17 49.11 22.11 48.13 21.99C47.18 21.87 46.24 21.67 45.32 21.39L45.32 17.74C45.77 17.9 46.24 18.05 46.74 18.2C47.23 18.34 47.72 18.46 48.22 18.56C48.72 18.67 49.21 18.75 49.71 18.82C50.18 18.88 50.66 18.91 51.14 18.91C51.73 18.92 52.32 18.86 52.9 18.73C53.32 18.64 53.72 18.47 54.08 18.23C54.36 18.05 54.59 17.79 54.75 17.48C54.89 17.18 54.96 16.85 54.95 16.52C54.97 16.08 54.82 15.65 54.55 15.31C54.24 14.96 53.88 14.66 53.47 14.44C52.99 14.17 52.48 13.95 51.96 13.77C51.39 13.57 50.82 13.35 50.23 13.12C49.64 12.89 49.06 12.63 48.5 12.34C47.95 12.05 47.44 11.69 46.99 11.25C46.54 10.81 46.17 10.29 45.92 9.71C45.64 9.02 45.51 8.28 45.54 7.53C45.53 6.78 45.67 6.03 45.95 5.33C46.23 4.63 46.68 4 47.25 3.51C47.92 2.95 48.7 2.53 49.53 2.27C50.61 1.95 51.74 1.79 52.87 1.82C53.26 1.82 53.66 1.84 54.08 1.87C54.5 1.9 54.91 1.95 55.32 2.01C55.72 2.06 56.12 2.13 56.5 2.2C56.88 2.28 57.23 2.36 57.54 2.44L57.54 5.82C57.21 5.69 56.87 5.58 56.52 5.49C56.15 5.39 55.76 5.3 55.36 5.23C54.96 5.16 54.56 5.1 54.16 5.06C53.75 5.02 53.37 5 53 5C52.46 4.99 51.91 5.04 51.38 5.16C50.99 5.24 50.62 5.39 50.28 5.59C50.02 5.76 49.8 5.99 49.66 6.28C49.53 6.56 49.47 6.87 49.47 7.18C49.46 7.58 49.61 7.96 49.88 8.24C50.19 8.57 50.56 8.84 50.96 9.04C51.45 9.29 51.96 9.52 52.48 9.7C53.04 9.91 53.63 10.13 54.22 10.36C54.82 10.6 55.4 10.87 55.97 11.17C56.52 11.46 57.03 11.83 57.49 12.27C57.94 12.71 58.3 13.23 58.55 13.8C58.84 14.46 58.98 15.17 58.96 15.89Z" fill="#7421B0" fill-opacity="1.000000" fill-rule="nonzero"/>
		<path id="Vector" d="M73.82 21.24C73.11 21.53 72.37 21.75 71.62 21.89C70.83 22.03 70.04 22.1 69.24 22.1C68.15 22.11 67.07 21.95 66.03 21.6C65.13 21.3 64.31 20.79 63.62 20.13C62.95 19.45 62.43 18.62 62.11 17.7C61.74 16.63 61.56 15.5 61.59 14.36C61.57 13.23 61.76 12.1 62.15 11.04C62.5 10.08 63.05 9.22 63.75 8.5C64.46 7.78 65.31 7.22 66.25 6.87C67.28 6.47 68.38 6.28 69.49 6.3C70.31 6.29 71.14 6.34 71.95 6.45C72.56 6.55 73.16 6.68 73.74 6.85L73.74 10.42C73.11 10.1 72.44 9.86 71.76 9.69C71.09 9.53 70.41 9.44 69.72 9.43C69.11 9.42 68.5 9.54 67.93 9.78C67.42 10 66.96 10.32 66.59 10.74C66.21 11.18 65.92 11.69 65.75 12.24C65.55 12.86 65.46 13.52 65.46 14.17C65.45 14.84 65.55 15.51 65.77 16.15C65.96 16.7 66.26 17.2 66.65 17.63C67.03 18.04 67.5 18.36 68.01 18.56C68.58 18.78 69.18 18.89 69.79 18.89C70.12 18.89 70.45 18.86 70.78 18.82C71.14 18.77 71.49 18.71 71.83 18.62C72.18 18.54 72.53 18.44 72.87 18.33C73.21 18.22 73.53 18.1 73.82 17.97L73.82 21.24Z" fill="#7421B0" fill-opacity="1.000000" fill-rule="nonzero"/>
		<path id="Vector" d="M87.07 12.48C87.1 11.99 87.07 11.5 86.99 11.02C86.93 10.67 86.81 10.33 86.63 10.03C86.49 9.78 86.28 9.59 86.04 9.46C85.78 9.33 85.51 9.27 85.22 9.27C84.62 9.3 84.04 9.54 83.58 9.94C82.85 10.58 82.22 11.32 81.71 12.15L81.71 21.83L78.01 21.83L78.01 6.54L81.28 6.54L81.41 8.76C81.65 8.39 81.93 8.04 82.25 7.72C82.55 7.41 82.9 7.14 83.27 6.92C83.67 6.68 84.09 6.51 84.53 6.4C85.03 6.27 85.54 6.21 86.06 6.22C86.75 6.2 87.44 6.34 88.07 6.61C88.65 6.88 89.16 7.28 89.55 7.8C89.98 8.38 90.28 9.05 90.44 9.76C90.64 10.65 90.73 11.57 90.69 12.49L87.07 12.48Z" fill="#7421B0" fill-opacity="1.000000" fill-rule="nonzero"/>
		<path id="Vector" d="M106.22 13.02C106.22 13.27 106.21 13.6 106.19 14C106.18 14.4 106.16 14.78 106.13 15.13L96.26 15.13C96.24 15.73 96.35 16.34 96.56 16.9C96.75 17.39 97.04 17.83 97.42 18.19C97.8 18.54 98.25 18.81 98.75 18.97C99.3 19.15 99.88 19.24 100.47 19.23C101.25 19.23 102.04 19.17 102.81 19.06C103.69 18.93 104.56 18.74 105.41 18.49L105.41 21.42C105.03 21.53 104.61 21.63 104.15 21.72C103.7 21.81 103.24 21.89 102.76 21.96C102.29 22.03 101.81 22.08 101.33 22.12C100.85 22.15 100.38 22.17 99.93 22.17C98.88 22.19 97.84 22.02 96.86 21.68C95.99 21.37 95.2 20.87 94.55 20.21C93.9 19.53 93.41 18.71 93.1 17.81C92.75 16.74 92.58 15.62 92.59 14.5C92.58 13.35 92.76 12.2 93.1 11.11C93.41 10.16 93.89 9.27 94.52 8.51C95.13 7.78 95.89 7.21 96.75 6.82C97.67 6.41 98.66 6.21 99.66 6.23C100.63 6.21 101.58 6.38 102.48 6.73C103.26 7.04 103.95 7.52 104.53 8.14C105.09 8.76 105.52 9.49 105.78 10.29C106.08 11.17 106.23 12.09 106.22 13.02ZM102.55 12.5C102.57 11.97 102.5 11.44 102.33 10.94C102.19 10.53 101.98 10.15 101.69 9.83C101.43 9.55 101.1 9.32 100.74 9.18C100.37 9.04 99.98 8.97 99.58 8.97C99.17 8.96 98.75 9.03 98.37 9.19C97.98 9.35 97.64 9.59 97.35 9.9C96.77 10.51 96.43 11.38 96.33 12.51L102.55 12.5Z" fill="#7421B0" fill-opacity="1.000000" fill-rule="nonzero"/>
		<path id="Vector" d="M121.95 13.02C121.95 13.27 121.94 13.6 121.93 14C121.91 14.4 121.89 14.78 121.86 15.13L111.99 15.13C111.98 15.73 112.08 16.34 112.29 16.9C112.48 17.39 112.77 17.83 113.15 18.19C113.53 18.54 113.99 18.81 114.48 18.97C115.04 19.15 115.62 19.24 116.2 19.23C116.98 19.23 117.77 19.17 118.54 19.06C119.42 18.93 120.29 18.74 121.14 18.49L121.14 21.42C120.75 21.53 120.33 21.63 119.88 21.72C119.43 21.81 118.96 21.89 118.49 21.96C118.02 22.03 117.54 22.08 117.06 22.12C116.58 22.15 116.11 22.17 115.65 22.17C114.61 22.19 113.57 22.02 112.58 21.68C111.72 21.37 110.93 20.87 110.28 20.21C109.63 19.53 109.14 18.71 108.83 17.81C108.48 16.74 108.3 15.62 108.32 14.5C108.31 13.35 108.48 12.2 108.83 11.11C109.14 10.16 109.62 9.27 110.25 8.51C110.86 7.78 111.62 7.21 112.47 6.82C113.39 6.41 114.38 6.2 115.39 6.21C116.35 6.19 117.3 6.36 118.2 6.71C118.98 7.02 119.68 7.5 120.25 8.12C120.82 8.73 121.26 9.47 121.53 10.27C121.82 11.16 121.96 12.09 121.95 13.02ZM118.28 12.5C118.3 11.97 118.23 11.44 118.06 10.94C117.93 10.53 117.71 10.15 117.42 9.83C117.16 9.55 116.83 9.32 116.48 9.18C116.1 9.04 115.71 8.97 115.31 8.97C114.9 8.96 114.49 9.03 114.11 9.18C113.72 9.34 113.37 9.57 113.09 9.87C112.51 10.49 112.16 11.35 112.06 12.48L118.28 12.5Z" fill="#7421B0" fill-opacity="1.000000" fill-rule="nonzero"/>
		<path id="Vector" d="M133.55 21.83L133.55 11.86C133.55 10.19 132.94 9.35 131.72 9.35C131.07 9.37 130.44 9.64 129.97 10.1C129.31 10.72 128.72 11.41 128.2 12.15L128.2 21.83L124.6 21.83L124.6 6.54L127.72 6.54L127.8 8.8C128.1 8.42 128.42 8.06 128.76 7.72C129.08 7.41 129.44 7.13 129.83 6.91C130.22 6.68 130.64 6.5 131.07 6.39C131.56 6.26 132.06 6.2 132.56 6.21C133.25 6.19 133.94 6.32 134.58 6.59C135.13 6.83 135.62 7.2 136.01 7.67C136.41 8.17 136.71 8.74 136.88 9.36C137.08 10.07 137.18 10.82 137.17 11.56L137.17 21.83L133.55 21.83Z" fill="#7421B0" fill-opacity="1.000000" fill-rule="nonzero"/>
		<path id="Vector" d="M152.72 17.33C152.74 18.11 152.55 18.89 152.15 19.56C151.77 20.18 151.26 20.69 150.64 21.07C149.99 21.46 149.27 21.75 148.52 21.91C147.72 22.08 146.9 22.17 146.09 22.17C145.09 22.17 144.09 22.12 143.1 22.01C142.25 21.91 141.41 21.76 140.59 21.55L140.59 18.24C141.48 18.63 142.41 18.91 143.36 19.09C144.22 19.26 145.09 19.35 145.97 19.35C146.91 19.35 147.62 19.2 148.09 18.9C148.3 18.78 148.47 18.61 148.6 18.4C148.72 18.19 148.79 17.95 148.79 17.71C148.79 17.49 148.74 17.27 148.64 17.08C148.5 16.85 148.31 16.66 148.09 16.53C147.72 16.31 147.34 16.13 146.94 15.99C146.45 15.8 145.8 15.59 145.01 15.36C144.34 15.18 143.69 14.94 143.06 14.65C142.55 14.41 142.09 14.1 141.68 13.71C141.32 13.35 141.04 12.93 140.86 12.45C140.67 11.91 140.58 11.34 140.59 10.77C140.59 10.16 140.73 9.56 141 9.01C141.3 8.43 141.72 7.93 142.24 7.55C142.85 7.1 143.55 6.76 144.28 6.57C145.22 6.31 146.18 6.19 147.15 6.2C147.99 6.2 148.83 6.25 149.66 6.35C150.39 6.45 151.04 6.57 151.6 6.69L151.6 9.68C150.81 9.42 150 9.22 149.18 9.09C148.44 8.97 147.69 8.92 146.94 8.92C146.32 8.88 145.7 9.02 145.15 9.32C144.95 9.43 144.78 9.59 144.66 9.79C144.54 9.99 144.48 10.22 144.48 10.45C144.48 10.66 144.52 10.87 144.61 11.07C144.74 11.28 144.91 11.46 145.12 11.59C145.47 11.8 145.84 11.97 146.22 12.11C146.68 12.3 147.3 12.5 148.07 12.72C148.83 12.93 149.57 13.21 150.28 13.54C150.81 13.78 151.3 14.11 151.72 14.51C152.07 14.86 152.33 15.28 152.49 15.75C152.65 16.26 152.73 16.79 152.72 17.33Z" fill="#7421B0" fill-opacity="1.000000" fill-rule="nonzero"/>
		<path id="Vector" d="M165.02 21.83L165.02 11.86C165.02 10.19 164.41 9.35 163.19 9.35C162.54 9.37 161.91 9.64 161.44 10.1C160.78 10.72 160.19 11.41 159.68 12.15L159.68 21.83L156.07 21.83L156.07 0.56L159.67 0.56L159.67 5.8L159.5 8.57C159.78 8.21 160.09 7.88 160.42 7.57C160.73 7.28 161.07 7.03 161.44 6.82C161.82 6.62 162.21 6.47 162.62 6.36C163.08 6.25 163.56 6.2 164.03 6.21C164.72 6.19 165.41 6.32 166.05 6.59C166.6 6.83 167.09 7.2 167.48 7.67C167.88 8.17 168.18 8.74 168.35 9.36C168.55 10.07 168.65 10.82 168.64 11.56L168.64 21.83L165.02 21.83Z" fill="#7421B0" fill-opacity="1.000000" fill-rule="nonzero"/>
		<path id="Vector" d="M185.32 14.06C185.33 15.19 185.16 16.3 184.81 17.37C184.51 18.31 184.01 19.19 183.36 19.93C182.72 20.65 181.93 21.22 181.05 21.59C180.05 21.99 178.98 22.19 177.91 22.17C176.9 22.19 175.88 22.02 174.93 21.68C174.08 21.37 173.32 20.86 172.7 20.19C172.06 19.49 171.58 18.64 171.3 17.73C170.95 16.61 170.79 15.44 170.81 14.27C170.8 13.15 170.97 12.03 171.32 10.96C171.63 10.02 172.13 9.15 172.78 8.42C173.43 7.71 174.23 7.15 175.11 6.78C176.1 6.39 177.15 6.19 178.22 6.21C179.24 6.19 180.25 6.36 181.22 6.71C182.06 7.03 182.83 7.54 183.45 8.21C184.08 8.92 184.56 9.76 184.84 10.68C185.18 11.77 185.34 12.92 185.32 14.06ZM181.57 14.15C181.57 12.57 181.28 11.38 180.69 10.58C180.1 9.78 179.24 9.38 178.1 9.37C177.54 9.36 176.98 9.49 176.49 9.75C176.04 10 175.67 10.36 175.39 10.79C175.09 11.26 174.88 11.77 174.77 12.32C174.63 12.93 174.56 13.56 174.57 14.18C174.57 15.78 174.88 16.98 175.51 17.79C175.82 18.18 176.21 18.5 176.66 18.71C177.11 18.92 177.6 19.02 178.1 19C178.64 19.01 179.18 18.89 179.66 18.63C180.1 18.39 180.47 18.04 180.74 17.61C181.03 17.13 181.24 16.61 181.36 16.06C181.51 15.44 181.58 14.8 181.57 14.15L181.57 14.15Z" fill="#7421B0" fill-opacity="1.000000" fill-rule="nonzero"/>
		<path id="Vector" d="M199.92 21.68C199.27 21.83 198.61 21.95 197.95 22.04C197.33 22.12 196.7 22.17 196.08 22.17C195.21 22.19 194.35 22.08 193.52 21.86C192.86 21.68 192.25 21.35 191.74 20.89C191.26 20.44 190.91 19.88 190.71 19.24C190.47 18.47 190.36 17.67 190.38 16.86L190.38 9.4L186.35 9.4L186.35 6.53L190.39 6.53L190.39 2.62L194.08 1.65L194.08 6.54L199.92 6.54L199.92 9.4L194.08 9.4L194.08 16.59C194.08 17.46 194.28 18.12 194.67 18.57C195.07 19.02 195.73 19.25 196.65 19.24C197.23 19.24 197.81 19.19 198.38 19.09C198.9 19 199.41 18.89 199.92 18.74L199.92 21.68Z" fill="#7421B0" fill-opacity="1.000000" fill-rule="nonzero"/>
		<path id="Vector" d="M216.34 13.02C216.34 13.27 216.34 13.6 216.32 14C216.32 14.4 216.29 14.78 216.26 15.13L206.38 15.13C206.37 15.73 206.48 16.34 206.69 16.9C206.87 17.39 207.17 17.83 207.55 18.19C207.93 18.54 208.38 18.81 208.87 18.97C209.43 19.15 210.01 19.24 210.6 19.23C211.38 19.23 212.16 19.17 212.94 19.06C213.82 18.93 214.68 18.74 215.53 18.49L215.53 21.42C215.15 21.53 214.73 21.63 214.28 21.72C213.82 21.81 213.36 21.89 212.89 21.96C212.42 22.03 211.94 22.08 211.45 22.12C210.97 22.15 210.5 22.17 210.05 22.17C209.01 22.19 207.97 22.02 206.98 21.68C206.11 21.37 205.33 20.87 204.68 20.21C204.03 19.53 203.53 18.71 203.23 17.81C202.87 16.74 202.7 15.62 202.72 14.5C202.71 13.35 202.88 12.2 203.23 11.11C203.53 10.16 204.02 9.27 204.65 8.51C205.26 7.78 206.02 7.2 206.87 6.82C207.79 6.41 208.79 6.21 209.79 6.23C210.75 6.21 211.71 6.38 212.61 6.73C213.38 7.04 214.08 7.52 214.65 8.14C215.22 8.76 215.64 9.49 215.91 10.29C216.2 11.17 216.35 12.09 216.34 13.02ZM212.68 12.5C212.7 11.97 212.62 11.44 212.46 10.94C212.32 10.53 212.1 10.15 211.82 9.83C211.55 9.55 211.23 9.32 210.87 9.18C210.5 9.04 210.11 8.97 209.71 8.97C209.3 8.96 208.88 9.03 208.5 9.19C208.11 9.35 207.77 9.59 207.48 9.9C206.9 10.51 206.55 11.39 206.46 12.51L212.68 12.5Z" fill="#7421B0" fill-opacity="1.000000" fill-rule="nonzero"/>
		<path id="Vector" d="M228.66 12.48C228.69 11.99 228.66 11.5 228.58 11.02C228.53 10.67 228.4 10.33 228.22 10.03C228.08 9.78 227.87 9.59 227.63 9.46C227.37 9.33 227.09 9.27 226.81 9.27C226.2 9.3 225.62 9.54 225.16 9.94C224.44 10.58 223.8 11.32 223.29 12.15L223.29 21.83L219.6 21.83L219.6 6.54L222.87 6.54L223 8.76C223.24 8.39 223.52 8.04 223.84 7.72C224.15 7.41 224.49 7.14 224.86 6.92C225.26 6.68 225.68 6.51 226.13 6.4C226.62 6.27 227.14 6.21 227.65 6.22C228.34 6.2 229.03 6.34 229.67 6.61C230.25 6.88 230.76 7.28 231.14 7.8C231.57 8.38 231.87 9.05 232.03 9.76C232.24 10.65 232.32 11.57 232.29 12.49L228.66 12.48Z" fill="#7421B0" fill-opacity="1.000000" fill-rule="nonzero"/>
		<path id="Vector" d="M244.48 15.14L244.48 21L241.16 21L241.16 15.14L235.64 15.14L235.64 12.12L241.15 12.12L241.15 6.3L244.48 6.3L244.48 12.12L250 12.12L250 15.14L244.48 15.14Z" fill="#7421B0" fill-opacity="1.000000" fill-rule="nonzero"/>
		<path id="Vector" d="M49.84 35.8C49.84 35.85 49.84 35.91 49.84 35.96C49.83 36 49.83 36.05 49.82 36.09C49.81 36.12 49.8 36.15 49.78 36.18C49.76 36.21 49.73 36.25 49.7 36.28C49.62 36.34 49.54 36.4 49.46 36.45C49.31 36.55 49.16 36.63 49 36.69C48.8 36.77 48.59 36.84 48.38 36.88C48.12 36.94 47.87 36.96 47.61 36.96C47.16 36.97 46.72 36.88 46.3 36.72C45.92 36.56 45.58 36.31 45.31 35.99C45.02 35.65 44.8 35.24 44.68 34.81C44.52 34.28 44.45 33.73 44.46 33.19C44.45 32.62 44.53 32.05 44.69 31.51C44.83 31.05 45.06 30.63 45.36 30.26C45.64 29.92 45.99 29.65 46.39 29.48C46.81 29.29 47.26 29.21 47.72 29.22C47.93 29.21 48.14 29.24 48.34 29.28C48.53 29.32 48.72 29.37 48.91 29.43C49.06 29.49 49.22 29.56 49.36 29.65C49.46 29.71 49.56 29.77 49.64 29.85C49.68 29.89 49.71 29.93 49.74 29.97C49.76 30 49.77 30.03 49.78 30.07C49.79 30.11 49.8 30.15 49.8 30.2C49.81 30.26 49.81 30.32 49.8 30.38C49.81 30.45 49.81 30.51 49.8 30.58C49.8 30.63 49.79 30.67 49.77 30.72C49.76 30.75 49.74 30.78 49.71 30.8C49.69 30.82 49.66 30.83 49.63 30.83C49.55 30.81 49.47 30.77 49.41 30.71C49.29 30.62 49.17 30.53 49.04 30.45C48.86 30.34 48.68 30.26 48.48 30.19C48.23 30.11 47.97 30.07 47.7 30.07C47.39 30.07 47.08 30.14 46.8 30.28C46.52 30.41 46.28 30.62 46.1 30.87C45.9 31.16 45.75 31.48 45.66 31.83C45.54 32.25 45.49 32.69 45.5 33.13C45.49 33.56 45.54 33.98 45.65 34.4C45.73 34.73 45.88 35.05 46.09 35.32C46.27 35.57 46.51 35.76 46.79 35.88C47.09 36.02 47.41 36.08 47.73 36.07C47.99 36.08 48.25 36.04 48.5 35.97C48.69 35.9 48.88 35.81 49.06 35.7C49.22 35.61 49.35 35.53 49.45 35.46C49.51 35.4 49.6 35.36 49.69 35.35C49.71 35.34 49.74 35.35 49.76 35.37C49.78 35.38 49.79 35.41 49.8 35.43C49.82 35.47 49.82 35.52 49.83 35.57C49.83 35.63 49.84 35.71 49.84 35.8Z" fill="#484848" fill-opacity="1.000000" fill-rule="nonzero"/>
		<path id="Vector" d="M54.9 36.76C54.9 36.78 54.89 36.81 54.88 36.82C54.86 36.85 54.83 36.86 54.8 36.87C54.76 36.88 54.71 36.89 54.66 36.89C54.58 36.9 54.51 36.9 54.43 36.89C54.35 36.9 54.26 36.9 54.18 36.89C54.12 36.89 54.07 36.88 54.01 36.86C53.98 36.85 53.95 36.83 53.92 36.81C53.9 36.79 53.89 36.76 53.88 36.74L53.33 35.37C53.27 35.22 53.19 35.07 53.11 34.92C53.04 34.8 52.94 34.7 52.84 34.61C52.73 34.53 52.61 34.48 52.48 34.44C52.34 34.41 52.19 34.39 52.04 34.39L51.64 34.39L51.64 36.76C51.63 36.78 51.62 36.8 51.61 36.82C51.58 36.84 51.55 36.86 51.52 36.86C51.47 36.88 51.42 36.89 51.37 36.89C51.3 36.9 51.23 36.9 51.16 36.89C51.09 36.9 51.02 36.9 50.95 36.89C50.9 36.89 50.85 36.88 50.8 36.86C50.76 36.86 50.74 36.84 50.71 36.82C50.7 36.8 50.69 36.78 50.69 36.76L50.69 31.41C50.69 31.4 50.69 31.39 50.7 31.38C50.7 31.37 50.71 31.36 50.71 31.36C50.74 31.34 50.77 31.32 50.8 31.31C50.85 31.3 50.9 31.29 50.95 31.29C51.01 31.29 51.08 31.29 51.16 31.29C51.24 31.29 51.31 31.29 51.37 31.29C51.42 31.29 51.47 31.3 51.52 31.31C51.55 31.32 51.58 31.34 51.61 31.36C51.62 31.36 51.62 31.37 51.63 31.38C51.63 31.39 51.63 31.4 51.64 31.41L51.64 33.62L52.04 33.62C52.17 33.62 52.31 33.6 52.44 33.57C52.56 33.54 52.67 33.48 52.77 33.4C52.87 33.32 52.95 33.22 53.02 33.11C53.11 32.97 53.18 32.82 53.24 32.67L53.72 31.46C53.73 31.43 53.74 31.4 53.76 31.38C53.78 31.35 53.81 31.33 53.85 31.32C53.9 31.3 53.95 31.29 54 31.29C54.06 31.29 54.15 31.29 54.26 31.29C54.37 31.29 54.42 31.29 54.48 31.29C54.53 31.29 54.58 31.3 54.62 31.31C54.65 31.32 54.67 31.34 54.69 31.36C54.7 31.37 54.7 31.39 54.71 31.41C54.7 31.45 54.7 31.49 54.69 31.52C54.68 31.57 54.66 31.61 54.65 31.66L54.15 32.82C54.08 32.99 54 33.16 53.89 33.31C53.81 33.43 53.72 33.54 53.62 33.64C53.54 33.72 53.44 33.79 53.34 33.85C53.25 33.89 53.16 33.93 53.06 33.96C53.19 34.01 53.32 34.06 53.43 34.13C53.55 34.2 53.65 34.28 53.75 34.38C53.85 34.48 53.94 34.6 54.02 34.73C54.11 34.87 54.19 35.03 54.26 35.19L54.83 36.52C54.84 36.55 54.85 36.57 54.86 36.6C54.87 36.62 54.87 36.64 54.88 36.67C54.88 36.69 54.88 36.71 54.88 36.72C54.88 36.73 54.9 36.75 54.9 36.76Z" fill="#484848" fill-opacity="1.000000" fill-rule="nonzero"/>
		<path id="Vector" d="M60.54 34.01C60.54 34.43 60.5 34.84 60.39 35.25C60.31 35.58 60.16 35.9 59.96 36.18C59.78 36.43 59.54 36.63 59.26 36.77C58.96 36.91 58.63 36.98 58.3 36.98C58.16 36.98 58.01 36.96 57.88 36.93C57.74 36.9 57.61 36.85 57.49 36.79C57.36 36.71 57.24 36.63 57.12 36.53C57 36.43 56.87 36.31 56.73 36.17L56.73 38.81C56.73 38.84 56.72 38.87 56.71 38.89C56.69 38.92 56.66 38.94 56.63 38.95C56.59 38.97 56.54 38.98 56.49 38.99C56.41 38.99 56.33 38.99 56.26 38.99C56.18 38.99 56.1 38.99 56.03 38.99C55.98 38.98 55.93 38.97 55.88 38.95C55.85 38.94 55.82 38.92 55.81 38.89C55.79 38.87 55.78 38.84 55.79 38.81L55.79 31.46C55.78 31.43 55.79 31.4 55.8 31.37C55.82 31.35 55.84 31.33 55.87 31.32C55.91 31.3 55.96 31.29 56 31.29C56.06 31.29 56.12 31.29 56.2 31.29C56.27 31.29 56.35 31.29 56.4 31.29C56.44 31.29 56.48 31.3 56.52 31.32C56.55 31.33 56.58 31.35 56.6 31.37C56.61 31.4 56.62 31.43 56.62 31.46L56.62 32.17C56.76 32.02 56.91 31.87 57.07 31.74C57.21 31.63 57.35 31.53 57.51 31.44C57.65 31.36 57.81 31.3 57.96 31.26C58.12 31.22 58.29 31.2 58.45 31.2C58.79 31.19 59.12 31.26 59.41 31.42C59.67 31.56 59.9 31.77 60.06 32.03C60.23 32.3 60.36 32.61 60.42 32.92C60.5 33.28 60.54 33.64 60.54 34.01ZM59.56 34.12C59.56 33.86 59.54 33.6 59.5 33.34C59.46 33.11 59.39 32.88 59.29 32.67C59.2 32.48 59.06 32.32 58.89 32.2C58.71 32.08 58.49 32.02 58.27 32.03C58.15 32.03 58.03 32.04 57.91 32.08C57.78 32.12 57.66 32.18 57.55 32.26C57.41 32.35 57.28 32.46 57.16 32.57C57.01 32.72 56.86 32.89 56.73 33.06L56.73 35.14C56.95 35.42 57.2 35.67 57.48 35.88C57.69 36.05 57.95 36.14 58.22 36.14C58.43 36.15 58.65 36.09 58.83 35.97C59.01 35.85 59.15 35.69 59.25 35.5C59.36 35.29 59.44 35.07 59.48 34.84C59.53 34.61 59.56 34.37 59.56 34.12L59.56 34.12Z" fill="#484848" fill-opacity="1.000000" fill-rule="nonzero"/>
		<path id="Vector" d="M66.21 36.73C66.21 36.76 66.2 36.78 66.19 36.8C66.17 36.83 66.14 36.85 66.11 36.86C66.07 36.87 66.02 36.89 65.97 36.89C65.89 36.89 65.81 36.89 65.74 36.89C65.66 36.89 65.59 36.89 65.51 36.89C65.46 36.88 65.41 36.87 65.36 36.86C65.33 36.85 65.3 36.83 65.28 36.8C65.27 36.78 65.26 36.76 65.26 36.73L65.26 33.7C65.26 33.55 65.26 33.39 65.26 33.23C65.26 33.08 65.27 32.92 65.29 32.77C65.2 32.92 65.1 33.08 65 33.23C64.89 33.38 64.78 33.53 64.68 33.68L62.49 36.73L62.42 36.81C62.4 36.83 62.37 36.85 62.34 36.86C62.3 36.88 62.26 36.89 62.22 36.89C62.16 36.9 62.1 36.9 62.04 36.89C61.97 36.9 61.9 36.9 61.83 36.89C61.78 36.89 61.74 36.88 61.7 36.86C61.67 36.85 61.65 36.83 61.63 36.81C61.62 36.79 61.61 36.76 61.61 36.73L61.61 31.45C61.61 31.43 61.62 31.4 61.63 31.38C61.65 31.35 61.68 31.33 61.71 31.32C61.75 31.3 61.8 31.29 61.85 31.29C61.91 31.29 61.99 31.29 62.08 31.29C62.2 31.28 62.33 31.29 62.46 31.33C62.48 31.34 62.51 31.36 62.53 31.38C62.55 31.4 62.56 31.43 62.56 31.46L62.56 34.51C62.56 34.66 62.56 34.81 62.56 34.96C62.56 35.11 62.54 35.26 62.53 35.41C62.62 35.26 62.71 35.12 62.78 34.97C62.86 34.83 62.97 34.69 63.07 34.56L65.3 31.46C65.32 31.43 65.34 31.4 65.36 31.38C65.39 31.36 65.42 31.34 65.46 31.33C65.5 31.31 65.54 31.3 65.59 31.29C65.64 31.29 65.7 31.29 65.78 31.29C65.86 31.29 65.93 31.29 65.99 31.29C66.03 31.3 66.08 31.31 66.12 31.33C66.15 31.34 66.17 31.36 66.19 31.39C66.2 31.41 66.21 31.44 66.21 31.47L66.21 36.73Z" fill="#484848" fill-opacity="1.000000" fill-rule="nonzero"/>
		<path id="Vector" d="M72.15 36.73C72.15 36.76 72.14 36.79 72.12 36.81C72.1 36.83 72.08 36.85 72.05 36.86C72 36.88 71.96 36.89 71.91 36.9C71.83 36.9 71.75 36.9 71.68 36.9C71.6 36.9 71.52 36.9 71.44 36.9C71.39 36.89 71.34 36.88 71.3 36.86C71.27 36.85 71.24 36.83 71.22 36.81C71.21 36.79 71.2 36.76 71.2 36.73L71.2 34.42L68.57 34.42L68.57 36.73C68.57 36.76 68.56 36.78 68.54 36.81C68.52 36.83 68.5 36.85 68.47 36.86C68.42 36.88 68.37 36.89 68.32 36.9C68.25 36.9 68.17 36.9 68.09 36.9C68.01 36.9 67.94 36.9 67.86 36.9C67.81 36.89 67.76 36.88 67.71 36.86C67.68 36.86 67.66 36.84 67.64 36.81C67.62 36.79 67.62 36.76 67.62 36.73L67.62 31.46C67.62 31.43 67.63 31.4 67.64 31.38C67.66 31.35 67.68 31.33 67.71 31.32C67.76 31.3 67.81 31.29 67.86 31.29C67.92 31.29 68 31.29 68.09 31.29C68.18 31.29 68.26 31.29 68.32 31.29C68.37 31.29 68.42 31.3 68.47 31.32C68.5 31.34 68.52 31.36 68.54 31.38C68.56 31.4 68.57 31.43 68.57 31.46L68.57 33.6L71.2 33.6L71.2 31.46C71.2 31.43 71.21 31.41 71.23 31.38C71.25 31.36 71.27 31.34 71.3 31.33C71.35 31.3 71.39 31.29 71.44 31.29C71.51 31.29 71.58 31.29 71.68 31.29C71.78 31.29 71.85 31.29 71.91 31.29C71.96 31.29 72.01 31.31 72.05 31.33C72.08 31.34 72.11 31.36 72.13 31.38C72.14 31.41 72.15 31.43 72.15 31.46L72.15 36.73Z" fill="#484848" fill-opacity="1.000000" fill-rule="nonzero"/>
		<path id="Vector" d="M80.36 36.53C80.36 36.57 80.36 36.62 80.34 36.67C80.33 36.71 80.31 36.75 80.28 36.79C80.25 36.82 80.22 36.84 80.18 36.85C80.14 36.87 80.11 36.87 80.07 36.87L73.84 36.87C73.8 36.87 73.76 36.87 73.72 36.85C73.69 36.84 73.65 36.82 73.63 36.79C73.57 36.71 73.54 36.62 73.55 36.53L73.55 31.46C73.55 31.43 73.55 31.4 73.57 31.38C73.59 31.35 73.62 31.33 73.65 31.32C73.69 31.3 73.74 31.29 73.8 31.29C73.86 31.29 73.93 31.29 74.03 31.29C74.12 31.29 74.19 31.29 74.26 31.29C74.31 31.29 74.35 31.3 74.4 31.32C74.43 31.34 74.45 31.36 74.47 31.38C74.49 31.4 74.5 31.43 74.5 31.46L74.5 36.04L76.5 36.04L76.5 31.46C76.5 31.43 76.5 31.4 76.52 31.38C76.54 31.35 76.56 31.33 76.59 31.32C76.63 31.3 76.68 31.29 76.73 31.29C76.78 31.29 76.86 31.29 76.95 31.29C77.05 31.29 77.12 31.29 77.18 31.29C77.23 31.29 77.28 31.3 77.32 31.32C77.35 31.34 77.38 31.36 77.4 31.38C77.41 31.4 77.42 31.43 77.42 31.46L77.42 36.04L79.42 36.04L79.42 31.46C79.42 31.43 79.43 31.4 79.44 31.38C79.46 31.35 79.48 31.33 79.51 31.32C79.56 31.3 79.61 31.29 79.66 31.29C79.72 31.29 79.79 31.29 79.88 31.29C79.98 31.29 80.06 31.29 80.12 31.29C80.17 31.29 80.22 31.3 80.27 31.32C80.3 31.34 80.32 31.36 80.34 31.38C80.36 31.4 80.37 31.43 80.37 31.46L80.36 36.53Z" fill="#484848" fill-opacity="1.000000" fill-rule="nonzero"/>
		<path id="Vector" d="M86.57 34.03C86.57 34.43 86.52 34.83 86.4 35.21C86.3 35.56 86.12 35.88 85.89 36.15C85.67 36.41 85.38 36.62 85.07 36.76C84.7 36.91 84.31 36.99 83.91 36.98C83.54 36.99 83.16 36.92 82.8 36.79C82.5 36.67 82.23 36.47 82.01 36.23C81.8 35.96 81.64 35.66 81.54 35.33C81.43 34.94 81.38 34.54 81.39 34.14C81.38 33.74 81.44 33.34 81.55 32.95C81.65 32.61 81.82 32.29 82.05 32.02C82.28 31.75 82.57 31.55 82.89 31.41C83.26 31.26 83.65 31.19 84.05 31.2C84.43 31.19 84.8 31.25 85.16 31.39C85.46 31.51 85.73 31.7 85.95 31.95C86.17 32.21 86.33 32.52 86.42 32.84C86.53 33.23 86.58 33.63 86.57 34.03ZM85.59 34.1C85.59 33.83 85.56 33.56 85.51 33.29C85.46 33.05 85.38 32.83 85.25 32.62C85.13 32.43 84.96 32.28 84.76 32.17C84.53 32.06 84.27 32.01 84.02 32.01C83.76 32.01 83.51 32.06 83.27 32.17C83.07 32.27 82.89 32.41 82.76 32.6C82.62 32.8 82.52 33.02 82.47 33.26C82.4 33.53 82.37 33.81 82.37 34.09C82.37 34.36 82.4 34.63 82.45 34.9C82.5 35.13 82.58 35.36 82.71 35.56C82.83 35.75 83 35.91 83.2 36.01C83.43 36.13 83.7 36.19 83.96 36.18C84.21 36.19 84.46 36.13 84.69 36.03C84.89 35.93 85.07 35.78 85.2 35.6C85.34 35.4 85.44 35.18 85.49 34.95C85.56 34.67 85.59 34.38 85.59 34.1Z" fill="#484848" fill-opacity="1.000000" fill-rule="nonzero"/>
		<path id="Vector" d="M91.14 31.75C91.15 31.81 91.15 31.88 91.14 31.95C91.14 31.99 91.12 32.04 91.1 32.08C91.09 32.11 91.07 32.14 91.05 32.16C91.02 32.18 90.99 32.19 90.96 32.18L89.41 32.18L89.41 36.73C89.41 36.76 89.4 36.79 89.38 36.81C89.36 36.83 89.34 36.85 89.31 36.86C89.26 36.88 89.22 36.89 89.17 36.9C89.09 36.9 89.01 36.9 88.93 36.9C88.86 36.9 88.78 36.9 88.7 36.9C88.65 36.89 88.6 36.88 88.56 36.86C88.53 36.85 88.5 36.83 88.48 36.81C88.47 36.79 88.46 36.76 88.46 36.73L88.46 32.18L86.91 32.18C86.88 32.18 86.85 32.18 86.83 32.16C86.8 32.14 86.78 32.11 86.77 32.08C86.75 32.03 86.74 31.99 86.73 31.94C86.72 31.88 86.71 31.81 86.72 31.74C86.71 31.68 86.72 31.61 86.73 31.55C86.74 31.51 86.75 31.46 86.77 31.42C86.78 31.38 86.8 31.36 86.83 31.33C86.85 31.32 86.88 31.31 86.91 31.31L90.96 31.31C90.99 31.31 91.02 31.32 91.04 31.33C91.07 31.35 91.09 31.38 91.1 31.42C91.12 31.46 91.13 31.51 91.14 31.56C91.15 31.62 91.15 31.68 91.14 31.75Z" fill="#484848" fill-opacity="1.000000" fill-rule="nonzero"/>
		<path id="Vector" d="M98.63 36.73C98.63 36.76 98.62 36.78 98.61 36.8C98.59 36.83 98.56 36.85 98.53 36.86C98.49 36.87 98.44 36.88 98.39 36.89C98.24 36.91 98.08 36.91 97.93 36.89C97.88 36.88 97.83 36.87 97.78 36.86C97.75 36.85 97.72 36.83 97.7 36.8C97.69 36.78 97.68 36.76 97.68 36.73L97.68 33.7C97.68 33.55 97.68 33.39 97.68 33.23C97.68 33.08 97.7 32.92 97.71 32.77C97.62 32.93 97.52 33.08 97.42 33.23C97.31 33.38 97.21 33.53 97.1 33.68L94.92 36.73L94.85 36.81C94.83 36.83 94.8 36.85 94.77 36.86C94.73 36.88 94.69 36.89 94.64 36.89C94.58 36.9 94.52 36.9 94.46 36.89C94.39 36.9 94.32 36.9 94.25 36.89C94.21 36.89 94.17 36.88 94.12 36.86C94.09 36.85 94.07 36.83 94.05 36.81C94.04 36.78 94.03 36.76 94.03 36.73L94.03 31.45C94.03 31.43 94.04 31.4 94.05 31.38C94.07 31.35 94.1 31.33 94.13 31.32C94.18 31.3 94.23 31.29 94.28 31.29C94.34 31.29 94.41 31.29 94.5 31.29C94.63 31.28 94.76 31.29 94.88 31.33C94.91 31.34 94.93 31.35 94.95 31.38C94.97 31.4 94.98 31.43 94.98 31.46L94.98 34.51C94.98 34.66 94.98 34.81 94.97 34.96C94.96 35.11 94.95 35.26 94.94 35.41C95.03 35.26 95.12 35.12 95.2 34.97C95.28 34.83 95.38 34.69 95.49 34.56L97.71 31.46C97.73 31.43 97.76 31.41 97.78 31.38C97.81 31.36 97.84 31.34 97.87 31.33C97.92 31.31 97.96 31.3 98 31.29C98.05 31.29 98.12 31.29 98.2 31.29C98.28 31.29 98.35 31.29 98.4 31.29C98.45 31.3 98.49 31.31 98.53 31.33C98.56 31.34 98.59 31.36 98.6 31.39C98.62 31.41 98.62 31.44 98.62 31.47L98.63 36.73Z" fill="#484848" fill-opacity="1.000000" fill-rule="nonzero"/>
		<path id="Vector" d="M105.92 35.26C105.93 35.51 105.88 35.75 105.77 35.97C105.67 36.19 105.51 36.38 105.32 36.52C105.11 36.68 104.87 36.8 104.61 36.86C104.3 36.94 103.98 36.98 103.66 36.98C103.47 36.98 103.28 36.96 103.1 36.93C102.94 36.91 102.78 36.87 102.62 36.82C102.5 36.79 102.38 36.74 102.26 36.68C102.19 36.64 102.12 36.6 102.06 36.55C102.02 36.52 101.99 36.49 101.97 36.45C101.95 36.42 101.93 36.39 101.92 36.35C101.92 36.32 101.91 36.28 101.9 36.23C101.9 36.18 101.9 36.11 101.9 36.04C101.9 35.99 101.91 35.94 101.92 35.88C101.92 35.85 101.93 35.81 101.95 35.78C101.95 35.76 101.97 35.74 101.98 35.72C102 35.7 102.02 35.7 102.05 35.7C102.11 35.71 102.17 35.74 102.22 35.78C102.32 35.84 102.42 35.9 102.52 35.95C102.67 36.03 102.83 36.09 102.99 36.13C103.22 36.19 103.45 36.22 103.68 36.21C103.85 36.21 104.02 36.19 104.19 36.15C104.33 36.12 104.46 36.06 104.58 35.97C104.69 35.89 104.78 35.79 104.84 35.67C104.9 35.54 104.93 35.39 104.92 35.25C104.93 35.12 104.9 34.99 104.84 34.88C104.77 34.76 104.68 34.67 104.57 34.6C104.42 34.52 104.26 34.46 104.1 34.42C103.87 34.38 103.64 34.36 103.4 34.36L102.83 34.36C102.8 34.36 102.76 34.35 102.74 34.34C102.71 34.32 102.69 34.3 102.68 34.27C102.66 34.24 102.65 34.2 102.64 34.16C102.64 34.1 102.64 34.04 102.64 33.99C102.64 33.93 102.64 33.88 102.64 33.82C102.65 33.78 102.66 33.75 102.68 33.71C102.69 33.69 102.71 33.66 102.74 33.65C102.76 33.63 102.79 33.63 102.82 33.63L103.36 33.63C103.57 33.63 103.78 33.61 103.98 33.57C104.14 33.54 104.29 33.48 104.42 33.4C104.53 33.33 104.62 33.23 104.68 33.12C104.73 33 104.76 32.87 104.76 32.73C104.76 32.62 104.74 32.5 104.68 32.4C104.63 32.3 104.55 32.22 104.47 32.15C104.36 32.08 104.25 32.03 104.14 32.01C104 31.97 103.86 31.96 103.72 31.96C103.51 31.95 103.3 31.98 103.11 32.04C102.95 32.08 102.79 32.14 102.64 32.22C102.51 32.28 102.4 32.34 102.31 32.39C102.26 32.43 102.2 32.46 102.13 32.47C102.12 32.47 102.1 32.47 102.08 32.46C102.06 32.44 102.04 32.43 102.03 32.4C102.02 32.37 102.01 32.34 102.01 32.3C102 32.25 102 32.19 102.01 32.14C102.01 32.05 102.01 31.96 102.03 31.88C102.05 31.81 102.08 31.75 102.13 31.71C102.2 31.64 102.28 31.59 102.37 31.54C102.5 31.47 102.63 31.42 102.77 31.38C102.94 31.32 103.11 31.28 103.29 31.25C103.47 31.22 103.66 31.2 103.85 31.21C104.1 31.2 104.36 31.23 104.61 31.29C104.83 31.35 105.03 31.44 105.21 31.57C105.38 31.69 105.51 31.84 105.6 32.03C105.7 32.22 105.74 32.44 105.74 32.66C105.75 32.94 105.66 33.22 105.48 33.44C105.39 33.55 105.29 33.65 105.17 33.73C105.04 33.82 104.9 33.89 104.75 33.93C104.9 33.95 105.05 33.99 105.19 34.06C105.33 34.13 105.47 34.23 105.58 34.34C105.7 34.46 105.79 34.6 105.86 34.75C105.91 34.92 105.94 35.09 105.92 35.26Z" fill="#484848" fill-opacity="1.000000" fill-rule="nonzero"/>
		<path id="Vector" d="M110.85 36.73C110.86 36.75 110.85 36.77 110.84 36.79C110.84 36.8 110.82 36.82 110.81 36.83C110.77 36.86 110.73 36.88 110.68 36.88C110.61 36.9 110.53 36.91 110.45 36.9C110.37 36.91 110.29 36.9 110.21 36.88C110.16 36.88 110.12 36.86 110.08 36.83C110.07 36.82 110.06 36.8 110.05 36.78C110.04 36.77 110.04 36.75 110.04 36.73L110.04 36.21C109.82 36.44 109.56 36.64 109.27 36.78C109 36.91 108.7 36.99 108.39 36.98C108.14 36.99 107.89 36.95 107.65 36.88C107.44 36.81 107.25 36.7 107.09 36.56C106.93 36.43 106.81 36.25 106.73 36.06C106.64 35.85 106.6 35.61 106.6 35.38C106.59 35.11 106.65 34.84 106.78 34.6C106.9 34.38 107.07 34.19 107.29 34.06C107.54 33.9 107.82 33.79 108.1 33.73C108.46 33.66 108.82 33.62 109.19 33.62L109.9 33.62L109.9 33.21C109.9 33.03 109.88 32.85 109.84 32.68C109.8 32.53 109.73 32.4 109.63 32.29C109.53 32.18 109.41 32.1 109.27 32.05C109.09 32 108.9 31.97 108.72 31.97C108.5 31.97 108.29 32 108.09 32.06C107.92 32.11 107.76 32.17 107.6 32.25C107.46 32.32 107.34 32.38 107.25 32.43C107.19 32.48 107.12 32.51 107.04 32.52C107.01 32.52 106.98 32.51 106.96 32.5C106.93 32.48 106.91 32.45 106.9 32.42C106.88 32.39 106.87 32.35 106.86 32.3C106.85 32.25 106.85 32.2 106.85 32.14C106.85 32.07 106.86 31.99 106.87 31.91C106.89 31.85 106.92 31.79 106.97 31.75C107.05 31.68 107.13 31.62 107.23 31.58C107.37 31.5 107.51 31.44 107.66 31.39C107.85 31.33 108.03 31.29 108.22 31.26C108.42 31.22 108.62 31.2 108.81 31.2C109.14 31.2 109.46 31.24 109.76 31.33C110 31.4 110.22 31.53 110.4 31.71C110.56 31.88 110.68 32.09 110.75 32.32C110.82 32.6 110.86 32.89 110.85 33.18L110.85 36.73ZM109.91 34.32L109.1 34.32C108.88 34.32 108.65 34.34 108.43 34.39C108.26 34.43 108.1 34.49 107.95 34.59C107.83 34.67 107.74 34.78 107.67 34.9C107.61 35.04 107.58 35.18 107.58 35.33C107.58 35.45 107.6 35.57 107.64 35.68C107.68 35.8 107.75 35.9 107.84 35.98C108.04 36.15 108.29 36.24 108.55 36.23C108.8 36.23 109.04 36.16 109.24 36.03C109.49 35.87 109.72 35.67 109.91 35.44L109.91 34.32Z" fill="#484848" fill-opacity="1.000000" fill-rule="nonzero"/>
		<path id="Vector" d="M116.61 36.73C116.61 36.76 116.6 36.79 116.58 36.81C116.56 36.83 116.54 36.85 116.51 36.86C116.46 36.88 116.41 36.89 116.37 36.9C116.29 36.9 116.21 36.9 116.14 36.9C116.06 36.9 115.98 36.9 115.9 36.9C115.85 36.89 115.8 36.88 115.75 36.86C115.72 36.85 115.7 36.83 115.67 36.81C115.66 36.79 115.65 36.76 115.64 36.73L115.64 32.13L113.18 32.13L113.18 36.73C113.18 36.76 113.18 36.79 113.16 36.81C113.14 36.83 113.11 36.85 113.08 36.86C113.03 36.88 112.98 36.89 112.93 36.9C112.86 36.9 112.78 36.9 112.7 36.9C112.63 36.9 112.55 36.9 112.48 36.9C112.43 36.89 112.38 36.88 112.33 36.86C112.3 36.86 112.27 36.84 112.26 36.81C112.24 36.79 112.23 36.76 112.23 36.73L112.23 31.65C112.23 31.56 112.25 31.47 112.31 31.39C112.34 31.36 112.37 31.34 112.41 31.33C112.45 31.31 112.49 31.3 112.53 31.31L116.31 31.31C116.35 31.3 116.39 31.31 116.43 31.33C116.46 31.34 116.5 31.36 116.52 31.39C116.58 31.47 116.61 31.56 116.6 31.65L116.61 36.73Z" fill="#484848" fill-opacity="1.000000" fill-rule="nonzero"/>
		<path id="Vector" d="M122.61 36.73C122.61 36.76 122.6 36.78 122.59 36.8C122.57 36.83 122.54 36.85 122.51 36.86C122.46 36.87 122.42 36.89 122.37 36.89C122.22 36.91 122.06 36.91 121.91 36.89C121.86 36.88 121.81 36.87 121.76 36.86C121.73 36.85 121.7 36.83 121.68 36.8C121.66 36.78 121.66 36.76 121.66 36.73L121.66 33.7C121.66 33.55 121.66 33.39 121.66 33.23C121.66 33.08 121.67 32.92 121.69 32.77C121.6 32.92 121.5 33.08 121.4 33.23C121.29 33.38 121.19 33.53 121.08 33.68L118.89 36.73L118.82 36.81C118.8 36.83 118.77 36.85 118.74 36.86C118.7 36.88 118.66 36.89 118.62 36.89C118.56 36.9 118.5 36.9 118.44 36.89C118.37 36.9 118.3 36.9 118.23 36.89C118.18 36.89 118.14 36.88 118.1 36.86C118.07 36.85 118.05 36.83 118.03 36.81C118.02 36.78 118.01 36.76 118.01 36.73L118.01 31.45C118.01 31.43 118.02 31.4 118.03 31.38C118.05 31.35 118.07 31.33 118.11 31.32C118.15 31.3 118.2 31.29 118.25 31.29C118.31 31.29 118.39 31.29 118.48 31.29C118.6 31.28 118.73 31.29 118.85 31.33C118.88 31.34 118.91 31.36 118.93 31.38C118.95 31.4 118.96 31.43 118.96 31.46L118.96 34.51C118.96 34.66 118.96 34.81 118.96 34.96C118.96 35.11 118.94 35.26 118.93 35.41C119.02 35.26 119.11 35.12 119.18 34.97C119.26 34.83 119.37 34.69 119.47 34.56L121.69 31.46C121.72 31.43 121.74 31.4 121.77 31.38C121.79 31.35 121.82 31.34 121.86 31.33C121.9 31.31 121.94 31.3 121.99 31.29C122.04 31.29 122.1 31.29 122.18 31.29C122.26 31.29 122.33 31.29 122.39 31.29C122.43 31.3 122.48 31.31 122.52 31.33C122.55 31.34 122.57 31.36 122.59 31.39C122.6 31.41 122.61 31.44 122.61 31.47L122.61 36.73Z" fill="#484848" fill-opacity="1.000000" fill-rule="nonzero"/>
		<path id="Vector" d="M127.73 35.92C127.73 35.99 127.73 36.04 127.73 36.09C127.73 36.13 127.72 36.18 127.71 36.22C127.7 36.25 127.69 36.28 127.67 36.3C127.65 36.34 127.62 36.38 127.58 36.42C127.5 36.48 127.42 36.54 127.33 36.6C127.2 36.67 127.07 36.74 126.94 36.79C126.79 36.85 126.63 36.89 126.47 36.93C126.3 36.96 126.13 36.98 125.96 36.98C125.62 36.99 125.29 36.92 124.97 36.79C124.69 36.67 124.44 36.48 124.25 36.24C124.05 35.98 123.9 35.68 123.81 35.36C123.7 34.97 123.65 34.56 123.66 34.15C123.64 33.7 123.7 33.25 123.83 32.82C123.94 32.48 124.11 32.17 124.34 31.91C124.56 31.67 124.82 31.5 125.11 31.39C125.41 31.27 125.74 31.21 126.06 31.21C126.37 31.21 126.68 31.27 126.97 31.38C127.09 31.43 127.21 31.49 127.32 31.56C127.39 31.61 127.47 31.66 127.54 31.73C127.57 31.76 127.6 31.8 127.63 31.84C127.65 31.87 127.67 31.9 127.67 31.93C127.69 31.98 127.7 32.02 127.7 32.06C127.7 32.12 127.7 32.18 127.7 32.23C127.71 32.34 127.69 32.45 127.65 32.55C127.64 32.58 127.62 32.6 127.6 32.62C127.57 32.63 127.55 32.64 127.52 32.65C127.45 32.64 127.38 32.6 127.32 32.55C127.23 32.47 127.14 32.4 127.04 32.34C126.91 32.25 126.77 32.18 126.62 32.12C126.44 32.05 126.24 32.02 126.04 32.03C125.84 32.01 125.64 32.06 125.45 32.15C125.27 32.24 125.11 32.38 125 32.55C124.72 33.02 124.6 33.56 124.63 34.11C124.63 34.41 124.66 34.71 124.73 35C124.78 35.23 124.87 35.45 125.01 35.64C125.12 35.81 125.28 35.94 125.46 36.03C125.65 36.11 125.86 36.15 126.07 36.15C126.26 36.15 126.46 36.12 126.64 36.05C126.79 35.98 126.94 35.91 127.07 35.81C127.19 35.73 127.29 35.66 127.38 35.59C127.43 35.53 127.49 35.5 127.57 35.48C127.59 35.48 127.62 35.49 127.64 35.51C127.66 35.53 127.67 35.56 127.68 35.59C127.7 35.63 127.71 35.68 127.71 35.73C127.72 35.78 127.73 35.84 127.73 35.92Z" fill="#484848" fill-opacity="1.000000" fill-rule="nonzero"/>
		<path id="Vector" d="M132.92 35.05C132.92 35.31 132.87 35.56 132.78 35.8C132.67 36.04 132.52 36.25 132.32 36.41C132.08 36.6 131.82 36.74 131.53 36.82C131.15 36.92 130.76 36.98 130.37 36.97L130.05 36.97C129.94 36.97 129.83 36.97 129.72 36.97L129.41 36.95L129.1 36.92C129.04 36.92 128.97 36.91 128.91 36.88C128.84 36.85 128.79 36.81 128.74 36.75C128.7 36.7 128.67 36.64 128.65 36.57C128.63 36.51 128.62 36.44 128.63 36.37L128.63 31.46C128.63 31.43 128.64 31.4 128.65 31.38C128.67 31.35 128.7 31.33 128.73 31.32C128.77 31.3 128.82 31.29 128.87 31.29C128.94 31.29 129.01 31.29 129.1 31.29C129.2 31.29 129.27 31.29 129.33 31.29C129.39 31.29 129.43 31.3 129.48 31.32C129.51 31.34 129.54 31.36 129.56 31.38C129.57 31.4 129.58 31.43 129.58 31.46L129.58 33.31C129.72 33.31 129.87 33.29 130.04 33.29C130.21 33.28 130.37 33.29 130.55 33.29C130.92 33.28 131.28 33.32 131.63 33.41C131.9 33.48 132.15 33.6 132.37 33.77C132.55 33.92 132.7 34.11 132.79 34.33C132.88 34.56 132.93 34.8 132.92 35.05ZM131.92 35.11C131.92 34.96 131.9 34.82 131.85 34.68C131.8 34.55 131.71 34.43 131.59 34.34C131.46 34.24 131.31 34.17 131.15 34.13C130.92 34.08 130.7 34.06 130.47 34.06C130.31 34.06 130.15 34.06 129.99 34.07C129.84 34.09 129.7 34.09 129.57 34.1L129.57 36.12C129.71 36.14 129.85 36.16 130 36.17C130.15 36.18 130.33 36.18 130.51 36.18C130.89 36.21 131.26 36.11 131.57 35.9C131.69 35.81 131.78 35.69 131.84 35.55C131.9 35.41 131.93 35.26 131.92 35.11Z" fill="#484848" fill-opacity="1.000000" fill-rule="nonzero"/>
		<path id="Vector" d="M139.92 33.96C139.93 34.39 139.87 34.83 139.76 35.24C139.67 35.59 139.51 35.91 139.29 36.19C139.09 36.45 138.82 36.65 138.52 36.78C138.18 36.92 137.82 36.98 137.45 36.98C137.26 36.98 137.06 36.96 136.87 36.93C136.71 36.9 136.55 36.86 136.39 36.8C136.27 36.76 136.15 36.7 136.04 36.63C135.97 36.59 135.89 36.54 135.83 36.48C135.8 36.46 135.77 36.43 135.74 36.4C135.73 36.37 135.71 36.34 135.71 36.31C135.69 36.27 135.69 36.22 135.69 36.18C135.69 36.13 135.69 36.07 135.69 36C135.68 35.89 135.69 35.79 135.73 35.69C135.74 35.67 135.75 35.65 135.77 35.64C135.79 35.63 135.81 35.62 135.84 35.62C135.9 35.63 135.96 35.66 136.01 35.71C136.1 35.79 136.2 35.85 136.3 35.91C136.45 35.99 136.6 36.06 136.76 36.11C136.98 36.18 137.22 36.21 137.45 36.21C137.65 36.22 137.85 36.18 138.04 36.1C138.23 36.02 138.39 35.91 138.53 35.75C138.83 35.36 138.98 34.87 138.97 34.38L136.37 34.38C136.34 34.38 136.32 34.37 136.29 34.35C136.27 34.34 136.25 34.32 136.24 34.29C136.2 34.2 136.19 34.11 136.19 34.01C136.19 33.92 136.2 33.82 136.24 33.74C136.25 33.71 136.27 33.69 136.29 33.68C136.31 33.66 136.34 33.65 136.37 33.65L138.95 33.65C138.93 33.41 138.88 33.18 138.8 32.96C138.73 32.76 138.63 32.59 138.49 32.44C138.35 32.29 138.19 32.17 138.01 32.1C137.81 32.01 137.59 31.97 137.37 31.98C137.17 31.97 136.97 32 136.78 32.07C136.63 32.13 136.48 32.2 136.34 32.28C136.24 32.35 136.14 32.42 136.04 32.49C136 32.54 135.94 32.58 135.87 32.59C135.85 32.59 135.83 32.58 135.82 32.57C135.8 32.55 135.78 32.53 135.77 32.51C135.75 32.47 135.74 32.43 135.74 32.39C135.74 32.33 135.74 32.27 135.74 32.2C135.74 32.15 135.74 32.09 135.74 32.04C135.74 31.99 135.75 31.96 135.76 31.92C135.77 31.9 135.78 31.87 135.79 31.84C135.81 31.82 135.83 31.79 135.85 31.77C135.91 31.72 135.97 31.67 136.04 31.63C136.15 31.55 136.27 31.49 136.39 31.44C136.56 31.37 136.73 31.31 136.91 31.27C137.11 31.23 137.32 31.2 137.53 31.21C137.87 31.2 138.2 31.26 138.5 31.39C138.8 31.51 139.06 31.69 139.27 31.93C139.49 32.18 139.66 32.47 139.77 32.79C139.88 33.17 139.93 33.57 139.92 33.96Z" fill="#484848" fill-opacity="1.000000" fill-rule="nonzero"/>
		<path id="Vector" d="M145.18 36.76C145.18 36.78 145.17 36.81 145.16 36.82C145.14 36.85 145.11 36.86 145.09 36.87C145.04 36.88 144.99 36.89 144.94 36.89C144.87 36.9 144.79 36.9 144.71 36.89C144.63 36.9 144.54 36.9 144.46 36.89C144.4 36.89 144.35 36.88 144.29 36.86C144.26 36.85 144.23 36.83 144.2 36.81C144.19 36.79 144.17 36.76 144.16 36.74L143.61 35.37C143.55 35.22 143.48 35.07 143.39 34.92C143.32 34.8 143.23 34.7 143.12 34.61C143.01 34.53 142.89 34.48 142.77 34.44C142.62 34.41 142.47 34.39 142.32 34.39L141.92 34.39L141.92 36.76C141.92 36.78 141.91 36.8 141.89 36.82C141.87 36.84 141.84 36.86 141.8 36.86C141.75 36.88 141.7 36.89 141.65 36.89C141.58 36.9 141.51 36.9 141.44 36.89C141.37 36.9 141.3 36.9 141.23 36.89C141.18 36.89 141.13 36.88 141.08 36.86C141.05 36.86 141.02 36.84 141 36.82C140.98 36.8 140.97 36.78 140.97 36.76L140.97 31.41C140.97 31.4 140.97 31.39 140.98 31.38C140.98 31.37 140.99 31.36 141 31.36C141.02 31.34 141.05 31.32 141.08 31.31C141.13 31.3 141.18 31.29 141.23 31.29C141.29 31.29 141.36 31.29 141.44 31.29C141.52 31.29 141.59 31.29 141.65 31.29C141.7 31.29 141.75 31.3 141.8 31.31C141.83 31.32 141.86 31.34 141.89 31.36C141.9 31.36 141.9 31.37 141.91 31.38C141.91 31.39 141.92 31.4 141.92 31.41L141.92 33.62L142.32 33.62C142.45 33.62 142.59 33.6 142.72 33.57C142.84 33.54 142.95 33.48 143.05 33.4C143.15 33.32 143.24 33.22 143.3 33.11C143.39 32.97 143.46 32.82 143.52 32.67L144 31.46C144.01 31.43 144.02 31.4 144.04 31.38C144.07 31.35 144.1 31.33 144.13 31.32C144.18 31.3 144.23 31.29 144.28 31.29C144.34 31.29 144.42 31.29 144.53 31.29C144.64 31.29 144.7 31.29 144.76 31.29C144.81 31.29 144.85 31.3 144.9 31.31C144.92 31.32 144.95 31.34 144.97 31.36C144.98 31.37 144.98 31.39 144.98 31.41C144.98 31.45 144.98 31.49 144.97 31.52C144.96 31.57 144.94 31.61 144.92 31.66L144.43 32.82C144.37 32.99 144.28 33.16 144.18 33.31C144.1 33.43 144.01 33.54 143.9 33.64C143.82 33.72 143.72 33.79 143.62 33.85C143.53 33.89 143.44 33.93 143.35 33.96C143.47 34.01 143.6 34.06 143.72 34.13C143.84 34.2 143.95 34.29 144.04 34.38C144.15 34.49 144.24 34.6 144.32 34.73C144.41 34.88 144.49 35.03 144.55 35.2L145.12 36.53C145.14 36.55 145.15 36.58 145.16 36.6C145.16 36.63 145.16 36.65 145.17 36.67C145.19 36.69 145.17 36.71 145.17 36.72C145.18 36.74 145.18 36.75 145.18 36.76Z" fill="#484848" fill-opacity="1.000000" fill-rule="nonzero"/>
		<path id="Vector" d="M150.82 34.01C150.83 34.43 150.78 34.84 150.68 35.25C150.59 35.58 150.45 35.9 150.25 36.18C150.06 36.43 149.82 36.63 149.54 36.77C149.24 36.91 148.91 36.98 148.58 36.98C148.44 36.98 148.3 36.96 148.16 36.93C148.03 36.9 147.9 36.85 147.78 36.79C147.64 36.71 147.52 36.63 147.41 36.53C147.28 36.43 147.15 36.31 147.01 36.17L147.01 38.81C147.02 38.84 147.01 38.87 146.99 38.89C146.97 38.92 146.95 38.94 146.92 38.95C146.87 38.97 146.82 38.98 146.77 38.99C146.7 38.99 146.62 38.99 146.54 38.99C146.46 38.99 146.39 38.99 146.31 38.99C146.26 38.98 146.21 38.97 146.16 38.95C146.13 38.94 146.11 38.92 146.09 38.89C146.08 38.87 146.07 38.84 146.07 38.81L146.07 31.46C146.07 31.43 146.07 31.4 146.09 31.37C146.1 31.35 146.13 31.33 146.16 31.32C146.2 31.3 146.24 31.29 146.28 31.29C146.34 31.29 146.41 31.29 146.48 31.29C146.56 31.29 146.63 31.29 146.68 31.29C146.72 31.29 146.77 31.3 146.81 31.32C146.84 31.33 146.86 31.35 146.88 31.37C146.89 31.4 146.9 31.43 146.9 31.46L146.9 32.17C147.04 32.02 147.2 31.87 147.36 31.74C147.49 31.62 147.64 31.52 147.79 31.44C147.94 31.36 148.09 31.3 148.25 31.26C148.41 31.22 148.57 31.2 148.74 31.2C149.07 31.19 149.4 31.26 149.7 31.42C149.96 31.56 150.18 31.77 150.34 32.03C150.51 32.3 150.63 32.61 150.7 32.92C150.78 33.28 150.82 33.64 150.82 34.01ZM149.84 34.12C149.84 33.86 149.82 33.6 149.78 33.34C149.75 33.11 149.67 32.88 149.57 32.67C149.48 32.48 149.34 32.32 149.18 32.2C148.99 32.08 148.78 32.02 148.56 32.03C148.43 32.03 148.31 32.04 148.19 32.08C148.07 32.12 147.94 32.18 147.83 32.26C147.69 32.35 147.56 32.46 147.44 32.57C147.29 32.72 147.15 32.89 147.01 33.06L147.01 35.14C147.23 35.42 147.48 35.67 147.76 35.88C147.97 36.05 148.23 36.14 148.5 36.14C148.72 36.15 148.93 36.09 149.12 35.97C149.29 35.85 149.43 35.69 149.53 35.5C149.64 35.29 149.72 35.07 149.77 34.84C149.81 34.61 149.84 34.37 149.84 34.12L149.84 34.12Z" fill="#484848" fill-opacity="1.000000" fill-rule="nonzero"/>
		<path id="Vector" d="M155.78 36.73C155.79 36.75 155.78 36.77 155.77 36.79C155.77 36.8 155.75 36.82 155.74 36.83C155.7 36.86 155.66 36.88 155.61 36.88C155.54 36.9 155.46 36.91 155.38 36.9C155.3 36.91 155.22 36.9 155.14 36.88C155.09 36.88 155.05 36.86 155.01 36.83C155 36.82 154.99 36.8 154.98 36.78C154.97 36.77 154.97 36.75 154.97 36.73L154.97 36.21C154.75 36.44 154.49 36.64 154.2 36.78C153.93 36.91 153.63 36.99 153.32 36.98C153.07 36.99 152.82 36.95 152.58 36.88C152.38 36.81 152.19 36.71 152.02 36.56C151.87 36.43 151.74 36.25 151.66 36.06C151.57 35.85 151.53 35.61 151.53 35.38C151.52 35.11 151.58 34.84 151.71 34.6C151.83 34.38 152.01 34.19 152.22 34.06C152.47 33.9 152.75 33.79 153.03 33.73C153.39 33.66 153.75 33.62 154.12 33.62L154.83 33.62L154.83 33.21C154.83 33.03 154.81 32.85 154.77 32.68C154.73 32.53 154.66 32.4 154.57 32.29C154.46 32.18 154.34 32.1 154.2 32.05C154.02 32 153.84 31.97 153.65 31.97C153.44 31.97 153.22 32 153.02 32.06C152.85 32.11 152.69 32.17 152.53 32.25C152.39 32.32 152.28 32.38 152.18 32.43C152.12 32.48 152.05 32.51 151.97 32.52C151.94 32.52 151.92 32.51 151.89 32.5C151.87 32.48 151.85 32.45 151.83 32.42C151.81 32.39 151.8 32.35 151.79 32.3C151.79 32.25 151.79 32.2 151.79 32.14C151.79 32.07 151.8 31.99 151.81 31.91C151.83 31.85 151.86 31.8 151.91 31.75C151.99 31.68 152.08 31.62 152.17 31.58C152.31 31.5 152.45 31.44 152.61 31.39C152.78 31.33 152.96 31.28 153.14 31.25C153.34 31.21 153.54 31.19 153.74 31.19C154.06 31.18 154.38 31.23 154.68 31.32C154.92 31.39 155.14 31.52 155.31 31.7C155.48 31.87 155.6 32.08 155.67 32.31C155.74 32.59 155.78 32.88 155.77 33.17L155.78 36.73ZM154.84 34.32L154.03 34.32C153.81 34.32 153.58 34.34 153.36 34.39C153.19 34.43 153.03 34.49 152.88 34.59C152.76 34.67 152.67 34.78 152.6 34.9C152.54 35.04 152.51 35.18 152.51 35.33C152.51 35.45 152.53 35.57 152.57 35.68C152.62 35.8 152.68 35.9 152.77 35.98C152.97 36.15 153.22 36.24 153.49 36.23C153.73 36.23 153.97 36.16 154.18 36.03C154.43 35.87 154.65 35.67 154.84 35.44L154.84 34.32Z" fill="#484848" fill-opacity="1.000000" fill-rule="nonzero"/>
		<path id="Vector" d="M161.7 36.73C161.7 36.76 161.69 36.79 161.67 36.81C161.66 36.83 161.63 36.85 161.6 36.86C161.56 36.88 161.51 36.89 161.46 36.9C161.38 36.9 161.3 36.9 161.23 36.9C161.15 36.9 161.07 36.9 160.99 36.9C160.94 36.89 160.89 36.88 160.85 36.86C160.82 36.85 160.79 36.83 160.77 36.81C160.76 36.79 160.75 36.76 160.75 36.73L160.75 34.42L158.12 34.42L158.12 36.73C158.12 36.76 158.11 36.79 158.09 36.81C158.07 36.83 158.05 36.85 158.02 36.86C157.97 36.88 157.92 36.89 157.87 36.9C157.8 36.9 157.72 36.9 157.64 36.9C157.56 36.9 157.49 36.9 157.41 36.9C157.36 36.89 157.31 36.88 157.26 36.86C157.23 36.85 157.21 36.83 157.19 36.81C157.17 36.78 157.17 36.76 157.17 36.73L157.17 31.46C157.17 31.43 157.17 31.4 157.19 31.38C157.21 31.36 157.23 31.34 157.26 31.32C157.31 31.3 157.36 31.29 157.41 31.29C157.47 31.29 157.55 31.29 157.64 31.29C157.73 31.29 157.81 31.29 157.87 31.29C157.92 31.29 157.97 31.3 158.02 31.32C158.05 31.34 158.07 31.36 158.09 31.38C158.11 31.4 158.12 31.43 158.12 31.46L158.12 33.6L160.75 33.6L160.75 31.46C160.75 31.43 160.76 31.41 160.77 31.38C160.79 31.36 160.82 31.34 160.85 31.33C160.89 31.3 160.94 31.29 160.99 31.29C161.05 31.29 161.13 31.29 161.23 31.29C161.32 31.29 161.4 31.29 161.46 31.29C161.51 31.29 161.56 31.31 161.6 31.33C161.63 31.34 161.65 31.36 161.67 31.38C161.69 31.41 161.7 31.43 161.7 31.46L161.7 36.73Z" fill="#484848" fill-opacity="1.000000" fill-rule="nonzero"/>
		<path id="Vector" d="M167 36.73C167 36.75 167 36.77 166.99 36.79C166.98 36.8 166.97 36.82 166.96 36.83C166.92 36.86 166.87 36.88 166.83 36.88C166.75 36.9 166.67 36.91 166.59 36.9C166.51 36.91 166.43 36.9 166.36 36.88C166.31 36.88 166.26 36.86 166.23 36.83C166.21 36.82 166.2 36.8 166.19 36.79C166.19 36.77 166.18 36.75 166.19 36.73L166.19 36.21C165.97 36.44 165.72 36.64 165.43 36.78C165.16 36.91 164.85 36.99 164.55 36.98C164.3 36.99 164.05 36.95 163.81 36.88C163.61 36.81 163.41 36.7 163.25 36.56C163.09 36.42 162.97 36.25 162.89 36.06C162.8 35.85 162.75 35.62 162.76 35.38C162.75 35.11 162.81 34.84 162.94 34.6C163.06 34.38 163.24 34.19 163.45 34.06C163.7 33.9 163.98 33.79 164.26 33.73C164.62 33.66 164.99 33.62 165.35 33.62L166.06 33.62L166.06 33.21C166.07 33.03 166.04 32.85 166 32.68C165.96 32.53 165.89 32.4 165.79 32.29C165.69 32.18 165.57 32.1 165.43 32.05C165.25 32 165.07 31.97 164.88 31.97C164.67 31.97 164.46 32 164.25 32.06C164.08 32.11 163.92 32.17 163.76 32.25C163.62 32.32 163.51 32.38 163.41 32.43C163.35 32.48 163.28 32.51 163.2 32.52C163.17 32.52 163.15 32.51 163.12 32.5C163.1 32.48 163.08 32.45 163.06 32.42C163.04 32.39 163.03 32.35 163.02 32.3C163.02 32.25 163.02 32.2 163.02 32.14C163.02 32.07 163.03 31.99 163.04 31.91C163.06 31.85 163.09 31.8 163.14 31.75C163.22 31.68 163.31 31.62 163.4 31.58C163.54 31.5 163.68 31.44 163.83 31.39C164.01 31.33 164.19 31.28 164.37 31.25C164.57 31.21 164.77 31.19 164.97 31.19C165.29 31.18 165.61 31.23 165.91 31.32C166.15 31.39 166.37 31.52 166.54 31.7C166.71 31.87 166.83 32.08 166.9 32.31C166.97 32.59 167.01 32.88 167.01 33.17L167 36.73ZM166.06 34.32L165.25 34.32C165.02 34.32 164.79 34.34 164.57 34.39C164.4 34.43 164.24 34.49 164.1 34.59C163.98 34.67 163.88 34.78 163.82 34.9C163.76 35.04 163.73 35.18 163.73 35.33C163.72 35.45 163.74 35.57 163.79 35.68C163.83 35.8 163.9 35.9 163.98 35.98C164.18 36.15 164.44 36.24 164.7 36.23C164.94 36.23 165.18 36.16 165.39 36.03C165.64 35.87 165.87 35.67 166.06 35.44L166.06 34.32Z" fill="#484848" fill-opacity="1.000000" fill-rule="nonzero"/>
		<path id="Vector" d="M174.94 35.21C174.94 35.46 174.89 35.72 174.78 35.95C174.68 36.17 174.52 36.35 174.32 36.49C174.09 36.65 173.83 36.76 173.56 36.82C173.21 36.9 172.85 36.94 172.5 36.94L172.13 36.94L171.79 36.94L171.46 36.92L171.13 36.89C171.07 36.89 171 36.87 170.95 36.85C170.89 36.82 170.84 36.78 170.79 36.73C170.75 36.68 170.72 36.62 170.7 36.56C170.68 36.5 170.68 36.43 170.68 36.37L170.68 31.83C170.68 31.7 170.71 31.57 170.79 31.47C170.87 31.37 170.99 31.32 171.11 31.31C171.21 31.3 171.32 31.29 171.43 31.28L171.78 31.27C171.9 31.27 172.02 31.27 172.15 31.25C172.27 31.23 172.4 31.25 172.53 31.25C172.86 31.25 173.18 31.28 173.5 31.34C173.74 31.39 173.97 31.49 174.17 31.62C174.35 31.73 174.48 31.88 174.57 32.06C174.66 32.25 174.71 32.46 174.7 32.66C174.71 32.94 174.63 33.2 174.47 33.43C174.3 33.65 174.06 33.8 173.79 33.87C174.11 33.93 174.42 34.1 174.64 34.35C174.84 34.59 174.94 34.89 174.94 35.21ZM173.8 32.76C173.8 32.64 173.77 32.53 173.73 32.42C173.68 32.31 173.6 32.22 173.5 32.16C173.37 32.08 173.24 32.03 173.09 32C172.89 31.96 172.69 31.95 172.49 31.95C172.31 31.95 172.14 31.95 171.99 31.96C171.84 31.98 171.72 31.98 171.61 31.99L171.61 33.63L172.58 33.63C172.89 33.65 173.21 33.57 173.48 33.41C173.58 33.34 173.67 33.24 173.72 33.13C173.78 33.01 173.8 32.89 173.8 32.76ZM173.97 35.23C173.97 35.08 173.94 34.94 173.89 34.81C173.83 34.69 173.74 34.59 173.63 34.52C173.49 34.43 173.34 34.37 173.18 34.34C172.97 34.3 172.75 34.28 172.54 34.28L171.61 34.28L171.61 36.15C171.68 36.15 171.76 36.17 171.84 36.18L172.08 36.19L172.34 36.21L172.56 36.21C172.78 36.21 172.99 36.19 173.2 36.14C173.36 36.1 173.51 36.04 173.64 35.94C173.75 35.86 173.84 35.76 173.9 35.63C173.95 35.5 173.98 35.37 173.98 35.23L173.97 35.23Z" fill="#484848" fill-opacity="1.000000" fill-rule="nonzero"/>
		<path id="Vector" d="M182.73 36.47C182.73 36.53 182.72 36.59 182.71 36.66C182.7 36.7 182.68 36.74 182.66 36.78C182.65 36.81 182.62 36.83 182.59 36.85C182.57 36.86 182.54 36.86 182.52 36.86L178.64 36.86C178.61 36.86 178.58 36.86 178.56 36.85C178.54 36.83 178.51 36.8 178.5 36.78C178.47 36.74 178.46 36.7 178.45 36.66C178.43 36.59 178.43 36.53 178.43 36.47C178.43 36.41 178.43 36.35 178.45 36.29C178.46 36.24 178.47 36.2 178.49 36.16C178.5 36.13 178.53 36.1 178.55 36.09C178.58 36.07 178.61 36.06 178.64 36.06L180.19 36.06L180.19 30.31L178.75 31.18C178.7 31.21 178.64 31.24 178.57 31.25C178.56 31.25 178.54 31.25 178.52 31.25C178.5 31.24 178.48 31.24 178.47 31.22C178.44 31.19 178.42 31.14 178.41 31.1C178.4 31.02 178.4 30.95 178.4 30.87C178.4 30.82 178.4 30.76 178.4 30.71C178.41 30.67 178.41 30.63 178.43 30.59C178.44 30.56 178.45 30.53 178.48 30.51C178.5 30.48 178.53 30.46 178.56 30.44L180.27 29.32C180.29 29.31 180.31 29.3 180.33 29.29L180.41 29.27C180.45 29.26 180.49 29.25 180.53 29.25L180.71 29.25C180.78 29.25 180.86 29.25 180.94 29.25C180.99 29.26 181.03 29.27 181.08 29.28C181.11 29.29 181.13 29.31 181.15 29.33C181.16 29.36 181.17 29.38 181.17 29.4L181.17 36.05L182.51 36.05C182.54 36.05 182.57 36.06 182.6 36.08C182.62 36.1 182.65 36.12 182.66 36.15C182.68 36.19 182.69 36.23 182.7 36.28C182.72 36.34 182.72 36.4 182.73 36.47Z" fill="#484848" fill-opacity="1.000000" fill-rule="nonzero"/>
		<path id="Vector" d="M190.41 36.76C190.41 36.78 190.4 36.81 190.39 36.82C190.37 36.85 190.34 36.86 190.31 36.87C190.27 36.88 190.22 36.89 190.17 36.89C190.09 36.9 190.02 36.9 189.94 36.89C189.86 36.9 189.77 36.9 189.69 36.89C189.63 36.89 189.58 36.88 189.52 36.86C189.49 36.85 189.46 36.83 189.43 36.81C189.41 36.79 189.4 36.76 189.39 36.74L188.84 35.37C188.78 35.22 188.71 35.07 188.62 34.92C188.55 34.8 188.46 34.7 188.35 34.61C188.24 34.53 188.12 34.48 188 34.44C187.85 34.4 187.69 34.38 187.54 34.38L187.14 34.38L187.14 36.75C187.14 36.77 187.13 36.79 187.11 36.81C187.09 36.83 187.06 36.85 187.02 36.86C186.97 36.87 186.93 36.88 186.88 36.88C186.8 36.89 186.73 36.89 186.66 36.88C186.59 36.89 186.52 36.89 186.45 36.88C186.4 36.88 186.35 36.87 186.3 36.86C186.27 36.85 186.24 36.83 186.22 36.81C186.2 36.79 186.19 36.77 186.19 36.75L186.19 31.41C186.19 31.4 186.19 31.39 186.2 31.38C186.2 31.37 186.21 31.36 186.22 31.36C186.24 31.34 186.27 31.32 186.3 31.31C186.35 31.3 186.4 31.29 186.45 31.29C186.51 31.29 186.58 31.29 186.66 31.29C186.74 31.29 186.81 31.29 186.88 31.29C186.93 31.29 186.97 31.3 187.02 31.31C187.05 31.32 187.08 31.34 187.11 31.36C187.12 31.36 187.13 31.37 187.13 31.38C187.14 31.39 187.14 31.4 187.14 31.41L187.14 33.62L187.54 33.62C187.67 33.62 187.81 33.6 187.94 33.57C188.06 33.54 188.17 33.48 188.27 33.4C188.37 33.32 188.46 33.22 188.53 33.11C188.61 32.97 188.69 32.82 188.74 32.67L189.22 31.46C189.23 31.43 189.24 31.4 189.26 31.38C189.29 31.35 189.32 31.33 189.35 31.32C189.4 31.3 189.45 31.29 189.5 31.29C189.57 31.29 189.65 31.29 189.76 31.29C189.87 31.29 189.92 31.29 189.98 31.29C190.03 31.29 190.08 31.3 190.12 31.31C190.15 31.32 190.17 31.34 190.19 31.36C190.2 31.37 190.21 31.39 190.21 31.41C190.21 31.45 190.2 31.49 190.19 31.52C190.18 31.57 190.16 31.61 190.15 31.66L189.66 32.82C189.6 32.99 189.51 33.16 189.41 33.31C189.33 33.43 189.24 33.54 189.13 33.64C189.05 33.72 188.96 33.79 188.85 33.85C188.76 33.89 188.67 33.93 188.58 33.96C188.71 34.01 188.83 34.06 188.95 34.13C189.06 34.2 189.17 34.28 189.26 34.38C189.37 34.48 189.46 34.6 189.54 34.73C189.63 34.87 189.71 35.03 189.77 35.19L190.34 36.52C190.35 36.55 190.37 36.57 190.38 36.6C190.38 36.62 190.39 36.64 190.39 36.67L190.39 36.72C190.4 36.73 190.4 36.75 190.41 36.76Z" fill="#484848" fill-opacity="1.000000" fill-rule="nonzero"/>
		<path id="Vector" d="M195.54 36.73C195.54 36.76 195.53 36.79 195.52 36.81C195.5 36.83 195.47 36.85 195.44 36.86C195.4 36.88 195.35 36.89 195.3 36.9C195.22 36.9 195.14 36.9 195.07 36.9C194.99 36.9 194.91 36.9 194.83 36.9C194.78 36.89 194.73 36.88 194.69 36.86C194.66 36.85 194.63 36.83 194.61 36.81C194.59 36.79 194.59 36.76 194.59 36.73L194.59 32.13L193.17 32.13C193.11 32.75 193.03 33.3 192.95 33.78C192.88 34.21 192.78 34.63 192.66 35.04C192.57 35.36 192.45 35.66 192.3 35.95C192.18 36.17 192.03 36.37 191.86 36.54C191.71 36.69 191.54 36.8 191.34 36.87C191.15 36.94 190.95 36.97 190.75 36.97C190.72 36.97 190.69 36.96 190.66 36.95C190.64 36.93 190.62 36.91 190.6 36.88C190.58 36.84 190.57 36.8 190.57 36.75C190.56 36.68 190.56 36.61 190.57 36.53C190.57 36.44 190.57 36.36 190.57 36.31C190.57 36.26 190.58 36.21 190.6 36.17C190.61 36.14 190.62 36.11 190.65 36.1C190.67 36.08 190.7 36.08 190.73 36.08C190.85 36.08 190.97 36.05 191.09 35.99C191.21 35.91 191.32 35.81 191.41 35.69C191.52 35.52 191.62 35.34 191.69 35.14C191.79 34.88 191.87 34.6 191.93 34.32C192 33.99 192.07 33.61 192.14 33.17C192.2 32.73 192.26 32.23 192.32 31.66C192.32 31.57 192.35 31.47 192.4 31.4C192.43 31.37 192.46 31.35 192.5 31.33C192.53 31.32 192.57 31.31 192.61 31.31L195.26 31.31C195.3 31.31 195.34 31.32 195.38 31.33C195.42 31.35 195.45 31.37 195.48 31.4C195.53 31.47 195.56 31.57 195.55 31.66L195.54 36.73Z" fill="#484848" fill-opacity="1.000000" fill-rule="nonzero"/>
		<path id="Vector" d="M201.54 36.73C201.54 36.76 201.54 36.78 201.52 36.8C201.5 36.83 201.48 36.85 201.45 36.86C201.4 36.87 201.35 36.88 201.3 36.89C201.15 36.91 201 36.91 200.84 36.89C200.79 36.88 200.74 36.87 200.69 36.86C200.66 36.85 200.63 36.83 200.61 36.8C200.6 36.78 200.59 36.76 200.59 36.73L200.59 33.7C200.59 33.55 200.59 33.39 200.59 33.23C200.59 33.08 200.6 32.92 200.62 32.77C200.53 32.92 200.43 33.08 200.33 33.23L200.01 33.68L197.83 36.73L197.76 36.81C197.73 36.83 197.71 36.85 197.67 36.86C197.64 36.88 197.59 36.89 197.55 36.89C197.49 36.9 197.43 36.9 197.37 36.89C197.3 36.9 197.23 36.9 197.16 36.89C197.12 36.89 197.07 36.88 197.03 36.86C197 36.85 196.98 36.83 196.96 36.81C196.95 36.78 196.94 36.76 196.94 36.73L196.94 31.45C196.94 31.43 196.95 31.4 196.96 31.38C196.98 31.35 197.01 31.33 197.04 31.32C197.08 31.3 197.13 31.29 197.18 31.29C197.25 31.29 197.32 31.29 197.41 31.29C197.54 31.28 197.66 31.29 197.79 31.33C197.82 31.34 197.84 31.36 197.86 31.38C197.88 31.4 197.89 31.43 197.89 31.46L197.89 34.51C197.89 34.66 197.89 34.81 197.89 34.96C197.89 35.11 197.87 35.26 197.86 35.41C197.95 35.26 198.04 35.12 198.12 34.97C198.2 34.83 198.3 34.69 198.41 34.56L200.63 31.46C200.65 31.43 200.68 31.4 200.7 31.38C200.73 31.36 200.76 31.34 200.79 31.33C200.84 31.31 200.88 31.3 200.92 31.29C200.97 31.29 201.04 31.29 201.12 31.29C201.2 31.29 201.27 31.29 201.32 31.29C201.37 31.3 201.41 31.31 201.45 31.33C201.48 31.34 201.51 31.36 201.52 31.39C201.54 31.41 201.54 31.44 201.54 31.47L201.54 36.73Z" fill="#484848" fill-opacity="1.000000" fill-rule="nonzero"/>
		<path id="Vector" d="M207.16 36.76C207.16 36.78 207.15 36.81 207.14 36.82C207.12 36.85 207.1 36.86 207.07 36.87C207.02 36.88 206.97 36.89 206.92 36.89C206.85 36.9 206.77 36.9 206.7 36.89C206.61 36.9 206.53 36.9 206.44 36.89C206.39 36.89 206.33 36.88 206.28 36.86C206.24 36.85 206.21 36.83 206.18 36.81C206.17 36.79 206.15 36.76 206.14 36.74L205.59 35.37C205.53 35.22 205.46 35.07 205.37 34.92C205.3 34.8 205.21 34.7 205.1 34.61C204.99 34.53 204.88 34.48 204.75 34.44C204.6 34.41 204.45 34.39 204.3 34.39L203.9 34.39L203.9 36.76C203.9 36.78 203.89 36.8 203.87 36.82C203.85 36.84 203.82 36.86 203.78 36.86C203.74 36.88 203.69 36.89 203.64 36.89C203.57 36.9 203.49 36.9 203.42 36.89C203.35 36.9 203.28 36.9 203.21 36.89C203.16 36.89 203.11 36.88 203.06 36.86C203.03 36.86 203 36.84 202.98 36.82C202.96 36.8 202.95 36.78 202.95 36.76L202.95 31.41C202.95 31.4 202.96 31.39 202.96 31.38C202.96 31.37 202.97 31.36 202.98 31.36C203 31.34 203.03 31.32 203.06 31.31C203.11 31.3 203.16 31.29 203.21 31.29C203.27 31.29 203.34 31.29 203.42 31.29C203.51 31.29 203.57 31.29 203.64 31.29C203.69 31.29 203.74 31.3 203.78 31.31C203.82 31.32 203.85 31.34 203.87 31.36C203.88 31.36 203.89 31.37 203.89 31.38C203.9 31.39 203.9 31.4 203.9 31.41L203.9 33.62L204.3 33.62C204.44 33.62 204.57 33.6 204.7 33.57C204.82 33.54 204.93 33.48 205.03 33.4C205.13 33.32 205.22 33.22 205.29 33.11C205.37 32.97 205.45 32.82 205.5 32.67L205.99 31.46C205.99 31.43 206.01 31.4 206.03 31.38C206.05 31.35 206.08 31.33 206.11 31.32C206.16 31.3 206.21 31.29 206.26 31.29C206.33 31.29 206.41 31.29 206.52 31.29C206.63 31.29 206.69 31.29 206.75 31.29C206.79 31.29 206.84 31.3 206.89 31.31C206.91 31.32 206.93 31.34 206.95 31.36C206.96 31.37 206.97 31.39 206.97 31.41C206.97 31.45 206.96 31.49 206.95 31.52C206.94 31.57 206.93 31.61 206.91 31.66L206.42 32.82C206.35 32.99 206.26 33.16 206.16 33.31C206.08 33.43 205.99 33.54 205.89 33.64C205.8 33.72 205.71 33.79 205.6 33.85C205.52 33.89 205.42 33.93 205.33 33.96C205.46 34.01 205.58 34.06 205.7 34.13C205.81 34.2 205.92 34.28 206.01 34.38C206.12 34.48 206.21 34.6 206.29 34.73C206.38 34.87 206.46 35.03 206.52 35.19L207.09 36.52C207.1 36.55 207.12 36.57 207.13 36.6C207.13 36.62 207.14 36.64 207.14 36.67L207.14 36.72C207.16 36.73 207.16 36.75 207.16 36.76Z" fill="#484848" fill-opacity="1.000000" fill-rule="nonzero"/>
		<path id="Vector" d="M12.31 0L12.31 5.96L5.86 5.96L5.86 12.53L0 12.53L0 0L12.31 0Z" fill="#7421B0" fill-opacity="1.000000" fill-rule="nonzero"/>
		<path id="Vector" d="M0 25.47L5.86 25.47L5.86 32.04L12.31 32.04L12.31 38L0 38L0 25.47Z" fill="#7421B0" fill-opacity="1.000000" fill-rule="nonzero"/>
		<path id="Vector" d="M25.02 38L25.02 32.04L31.46 32.04L31.46 25.47L37.32 25.47L37.32 38L25.02 38Z" fill="#7421B0" fill-opacity="1.000000" fill-rule="nonzero"/>
		<path id="Vector" d="M37.32 12.53L31.46 12.53L31.46 5.96L25.02 5.96L25.02 0L37.32 0L37.32 12.53Z" fill="#7421B0" fill-opacity="1.000000" fill-rule="nonzero"/>
	</g>
</svg>
