<svg width="80.000000" height="80.000000" viewBox="0 0 80 80" fill="none" xmlns="http://www.w3.org/2000/svg" xmlns:xlink="http://www.w3.org/1999/xlink">
	<desc>
			Created with Pixso.
	</desc>
	<defs>
		<clipPath id="clip131_748">
			<rect id="crayon 1" rx="0.000000" width="79.000000" height="79.000000" transform="translate(0.500000 0.500000)" fill="white" fill-opacity="0"/>
		</clipPath>
	</defs>
	<rect id="crayon 1" rx="0.000000" width="79.000000" height="79.000000" transform="translate(0.500000 0.500000)" fill="#FFFFFF" fill-opacity="0"/>
	<g clip-path="url(#clip131_748)">
		<path id="Vector" d="M63.89 41.2L14.67 12.74C14.5 12.63 14.34 12.53 14.16 12.45L14.13 12.43L14.13 12.43C12.64 11.71 10.76 11.86 8.71 13.04C3.9 15.82 0 23.28 0 29.7C0 33.29 1.22 35.8 3.15 36.82L52.99 65.6C54.54 66.61 56.62 66.58 58.9 65.26C63.72 62.48 67.63 55.01 67.63 48.59C67.63 44.63 66.15 42 63.89 41.2Z" fill="#7421B0" fill-opacity="1.000000" fill-rule="nonzero"/>
		<path id="Vector" d="M53.2 65.73L10.45 41.04C8.52 40.02 7.33 37.44 7.33 33.85C7.33 27.43 11.23 19.97 16.05 17.19C17.88 16.13 19.57 15.91 20.98 16.39L63.93 41.22L53.2 65.73Z" fill="#E7DBFF" fill-opacity="1.000000" fill-rule="nonzero"/>
		<path id="Vector" d="M50.17 58.67C50.17 65.09 54.08 68.05 58.9 65.26C63.72 62.48 67.63 55.01 67.63 48.59C67.63 42.16 63.72 39.2 58.9 41.99C54.08 44.77 50.17 52.24 50.17 58.67Z" fill="#C0A9F0" fill-opacity="1.000000" fill-rule="nonzero"/>
		<path id="Vector" d="M40.86 58.61C40.24 57.22 40.24 55.75 40.24 54.67C40.24 47.15 44.75 38.64 50.52 35.32C51.08 34.99 51.65 34.7 52.2 34.44L58.46 38.06C56.72 38.2 48.23 44.5 46.47 54.67C46.07 56.99 46.28 60 47.63 62.51L40.86 58.61Z" fill="#E7DBFF" fill-opacity="1.000000" fill-rule="nonzero"/>
		<path id="Vector" d="M11.81 41.79C11.18 40.41 11.18 38.94 11.18 37.86C11.18 30.33 15.7 21.83 21.46 18.51C22.03 18.18 22.59 17.89 23.14 17.63L29.41 21.25C27.66 21.39 19.17 27.69 17.41 37.86C17.01 40.17 17.22 43.19 18.57 45.7L11.81 41.79Z" fill="#E7DBFF" fill-opacity="1.000000" fill-rule="nonzero"/>
		<path id="Vector" d="M52.74 59.02C52.74 53.33 56.2 46.71 60.47 44.24C62.96 42.81 65.18 43.1 66.59 44.72C66.59 44.72 66.59 44.72 66.59 44.72L66.63 44.77C66.66 44.79 66.68 44.82 66.7 44.85L79.12 60.56C80.07 61.79 80.26 63.44 79.62 64.86C78.91 66.44 77.27 67.38 75.54 67.19L57.34 65.79L57.34 65.79C54.63 65.75 52.74 63.23 52.74 59.02Z" fill="#7421B0" fill-opacity="1.000000" fill-rule="nonzero"/>
	</g>
</svg>
