<svg width="80.000000" height="80.000000" viewBox="0 0 80 80" fill="none" xmlns="http://www.w3.org/2000/svg" xmlns:xlink="http://www.w3.org/1999/xlink">
	<desc>
			Created with Pixso.
	</desc>
	<defs>
		<clipPath id="clip131_167">
			<rect id="001-puzzle" rx="0.000000" width="79.000000" height="79.000000" transform="translate(0.500000 0.500000)" fill="white" fill-opacity="0"/>
		</clipPath>
	</defs>
	<rect id="001-puzzle" rx="0.000000" width="79.000000" height="79.000000" transform="translate(0.500000 0.500000)" fill="#FFFFFF" fill-opacity="0"/>
	<g clip-path="url(#clip131_167)">
		<path id="Vector" d="M80 28.6L75.04 25.74L75.07 13.43C75.07 13.46 75.07 13.49 75.07 13.52C75.11 12.14 74.2 10.73 72.31 9.64C68.83 7.73 63.29 7.76 59.91 9.72C58.17 10.72 57.31 12.03 57.31 13.35C57.31 13.35 57.31 13.35 57.31 13.35L57.3 14.42C57.19 14.68 56.97 14.92 56.63 15.11L39.86 5.43L23.2 15.11L23.18 25.49C22.01 25.24 20.91 24.84 19.97 24.3C18.47 23.43 17.61 22.33 17.4 21.2L17.4 19.97C17.4 19.98 17.4 19.98 17.4 19.98C17.41 19.59 17.15 19.2 16.66 18.92L0 28.6L0 51.39L16.7 61.07C17.17 60.8 17.44 60.43 17.44 60.04L17.44 58.67C17.68 57.58 18.52 56.52 19.97 55.68C20.94 55.12 22.09 54.72 23.32 54.48L23.29 64.88L40.13 74.56L56.72 64.88C57.08 65.09 57.31 65.35 57.41 65.63L57.41 66.6C57.41 67.92 58.28 69.25 60.04 70.26C63.57 72.3 69.32 72.27 72.76 70.17C74.37 69.19 75.18 67.92 75.18 66.65L75.22 54.13L80 51.39L80 28.6Z" fill="#C0A9F0" fill-opacity="1.000000" fill-rule="nonzero"/>
		<path id="Vector" d="M57.37 14.08L57.31 36.87C57.31 36.82 57.3 36.77 57.29 36.71C57.26 36.52 57.24 36.33 57.24 36.14L57.31 13.35C57.3 13.54 57.32 13.73 57.36 13.92C57.37 13.97 57.37 14.02 57.37 14.08Z" fill="#7421B0" fill-opacity="1.000000" fill-rule="nonzero"/>
		<path id="Vector" d="M75.07 13.43L75.01 36.22C75 37.53 74.14 38.82 72.44 39.81C70.48 40.95 67.81 41.44 65.24 41.29C64.47 41.24 63.7 41.39 63.16 41.71L63.22 18.92C63.77 18.6 64.53 18.45 65.3 18.49C67.87 18.65 70.54 18.16 72.51 17.01C74.21 16.02 75.07 14.73 75.07 13.43Z" fill="#7421B0" fill-opacity="1.000000" fill-rule="nonzero"/>
		<path id="Vector" d="M17.4 19.97L17.34 42.76C17.34 42.81 17.34 42.86 17.33 42.91C17.3 43.08 17.28 43.25 17.28 43.42L17.35 20.63C17.35 20.46 17.36 20.29 17.39 20.12C17.4 20.07 17.4 20.02 17.4 19.97Z" fill="#7421B0" fill-opacity="1.000000" fill-rule="nonzero"/>
		<path id="Vector" d="M35.12 20.68L35.05 43.48C35.06 42.15 34.19 40.82 32.46 39.82C30.46 38.66 27.78 38.17 25.2 38.33C24.44 38.37 23.68 38.22 23.14 37.9L23.2 15.11C23.75 15.42 24.5 15.58 25.26 15.53C27.84 15.38 30.52 15.87 32.52 17.02C34.25 18.03 35.12 19.36 35.12 20.68Z" fill="#C0A9F0" fill-opacity="1.000000" fill-rule="nonzero"/>
		<path id="Vector" d="M17.37 59.31L17.44 36.51C17.44 35.2 18.31 33.89 20.04 32.89C23.42 30.93 28.96 30.9 32.6 32.9L32.53 55.69C28.9 53.69 23.36 53.72 19.97 55.68C18.24 56.68 17.37 57.99 17.37 59.31Z" fill="#7421B0" fill-opacity="1.000000" fill-rule="nonzero"/>
		<path id="Vector" d="M35.22 36.57L35.16 59.36C35.16 58.03 34.28 56.7 32.53 55.69L32.6 32.9C34.35 33.91 35.22 35.24 35.22 36.57Z" fill="#7421B0" fill-opacity="1.000000" fill-rule="nonzero"/>
		<path id="Vector" d="M80 28.6L80 51.39L63.27 61.07L63.33 38.28L80 28.6Z" fill="#7421B0" fill-opacity="1.000000" fill-rule="nonzero"/>
		<path id="Vector" d="M17.5 37.25L17.44 60.04C17.44 60.43 17.17 60.8 16.7 61.07L16.76 38.28C17.24 38 17.5 37.63 17.5 37.25Z" fill="#7421B0" fill-opacity="1.000000" fill-rule="nonzero"/>
		<path id="Vector" d="M16.76 38.28L16.7 61.07L0 51.39L0 28.6L16.76 38.28Z" fill="#C0A9F0" fill-opacity="1.000000" fill-rule="nonzero"/>
		<path id="Vector" d="M57.53 43.14L57.47 65.93C57.47 65.54 57.21 65.16 56.72 64.88L56.79 42.09C57.27 42.37 57.54 42.75 57.53 43.14Z" fill="#7421B0" fill-opacity="1.000000" fill-rule="nonzero"/>
		<path id="Vector" d="M75.25 43.86L75.18 66.65C75.18 67.92 74.37 69.19 72.76 70.17C69.31 72.27 63.57 72.3 60.04 70.26C58.28 69.25 57.41 67.92 57.41 66.6L57.48 43.8C57.47 45.13 58.35 46.46 60.1 47.47C63.64 49.51 69.38 49.48 72.83 47.38C74.44 46.4 75.24 45.13 75.25 43.86Z" fill="#C0A9F0" fill-opacity="1.000000" fill-rule="nonzero"/>
		<path id="Vector" d="M56.79 42.09L56.72 64.88L40.13 74.56L40.13 51.77L56.79 42.09Z" fill="#7421B0" fill-opacity="1.000000" fill-rule="nonzero"/>
		<path id="Vector" d="M72.31 9.64C75.95 11.74 75.97 15 72.51 17.01C70.54 18.16 67.87 18.65 65.3 18.49C64.53 18.45 63.77 18.6 63.22 18.92L80 28.6L63.33 38.28C63.88 38.59 64.63 38.75 65.39 38.7C67.97 38.54 70.65 39.04 72.64 40.18C76.04 42.16 76.12 45.37 72.83 47.38C69.38 49.48 63.64 49.51 60.1 47.47C58.12 46.32 57.26 44.78 57.52 43.29C57.6 42.84 57.33 42.4 56.79 42.09L40.13 51.77L23.36 42.09C23.9 41.77 24.66 41.62 25.43 41.66C28.01 41.82 30.67 41.33 32.64 40.18C36.1 38.17 36.08 34.91 32.6 32.9C28.96 30.9 23.42 30.93 20.04 32.89C18.05 34.03 17.21 35.59 17.49 37.09C17.57 37.53 17.3 37.97 16.76 38.28L0 28.6L16.66 18.92C17.2 19.23 17.47 19.67 17.39 20.12C17.13 21.61 17.99 23.16 19.97 24.3C23.51 26.34 29.25 26.31 32.7 24.21C35.99 22.2 35.91 18.99 32.52 17.02C30.52 15.87 27.84 15.38 25.26 15.53C24.5 15.58 23.75 15.42 23.2 15.11L39.86 5.43L56.63 15.11C57.17 14.8 57.44 14.36 57.36 13.92C57.07 12.42 57.92 10.86 59.91 9.72C63.29 7.76 68.83 7.73 72.31 9.64Z" fill="#E7DBFF" fill-opacity="1.000000" fill-rule="nonzero"/>
		<path id="Vector" d="M40.13 51.77L40.13 74.56L23.29 64.88L23.36 42.09L40.13 51.77Z" fill="#C0A9F0" fill-opacity="1.000000" fill-rule="nonzero"/>
	</g>
</svg>
