<svg width="80.000000" height="80.000000" viewBox="0 0 80 80" fill="none" xmlns="http://www.w3.org/2000/svg" xmlns:xlink="http://www.w3.org/1999/xlink">
	<desc>
			Created with Pixso.
	</desc>
	<defs>
		<clipPath id="clip131_696">
			<rect id="raindrop 1" rx="0.000000" width="79.000000" height="79.000000" transform="matrix(-1 0 0 1 80.5 0.5)" fill="white" fill-opacity="0"/>
		</clipPath>
	</defs>
	<rect id="raindrop 1" rx="0.000000" width="79.000000" height="79.000000" transform="matrix(-1 0 0 1 80.5 0.5)" fill="#FFFFFF" fill-opacity="0"/>
	<g clip-path="url(#clip131_696)">
		<path id="Vector" d="M31.83 0L47.92 9.35C48.98 10.26 69.02 27.48 69.06 40.83C69.1 54.16 59.72 70.41 48.11 77.11C42.1 80.58 36.68 80.81 32.84 78.37C32.94 78.44 33.05 78.51 33.16 78.58L17.06 69.22C13.29 67.03 10.95 62.37 10.93 55.74C10.89 42.4 30.78 2.12 31.83 0Z" fill="#7421B0" fill-opacity="1.000000" fill-rule="nonzero"/>
		<path id="Vector" d="M47.92 9.35C46.88 11.47 26.99 51.75 27.03 65.09C27.06 78.43 36.5 83.82 48.11 77.11C59.72 70.41 69.1 54.16 69.06 40.83C69.02 27.48 48.98 10.26 47.92 9.35Z" fill="#E7DBFF" fill-opacity="1.000000" fill-rule="nonzero"/>
	</g>
</svg>
