<svg width="80.000000" height="80.000000" viewBox="0 0 80 80" fill="none" xmlns="http://www.w3.org/2000/svg" xmlns:xlink="http://www.w3.org/1999/xlink">
	<desc>
			Created with Pixso.
	</desc>
	<defs>
		<clipPath id="clip131_154">
			<rect id="003-save" rx="0.000000" width="79.000000" height="79.000000" transform="translate(0.500000 0.500000)" fill="white" fill-opacity="0"/>
		</clipPath>
	</defs>
	<rect id="003-save" rx="0.000000" width="79.000000" height="79.000000" transform="translate(0.500000 0.500000)" fill="#FFFFFF" fill-opacity="0"/>
	<g clip-path="url(#clip131_154)">
		<path id="Vector" d="M65.26 13.71L58.2 5.34C57.98 5.07 57.72 4.85 57.43 4.69L57.43 4.68L50.03 0.36C49.06 -0.2 47.8 -0.12 46.48 0.64L19.01 16.5C16.02 18.23 13.59 22.87 13.59 26.86L13.59 70.92C13.59 73.16 14.35 74.72 15.55 75.36L22.77 79.57L22.77 79.57L22.87 79.63C23.82 80.18 25.06 80.13 26.41 79.34L60.93 59.41C63.93 57.68 66.36 53.04 66.36 49.05L66.36 17.44C66.36 15.86 65.97 14.56 65.26 13.71Z" fill="#551981" fill-opacity="1.000000" fill-rule="nonzero"/>
		<path id="Vector" d="M62.5 59.87L27.49 79.36C24.46 81.05 22 79.25 22 75.35L22 32.27C22 28.36 24.46 23.83 27.49 22.13L55.34 6.63C57.07 5.67 58.69 5.8 59.73 6.99L66.88 15.18C67.6 16.01 68 17.29 68 18.83L68 49.74C68 53.64 65.53 58.18 62.5 59.87Z" fill="#7421B0" fill-opacity="1.000000" fill-rule="nonzero"/>
		<path id="Vector" d="M31 20.66L31 39.14C31 41.62 33.67 43.16 35.82 41.93L51.64 32.79C53.45 31.74 54.57 29.81 54.57 27.72L54.57 7L31 20.66Z" fill="#E7DBFF" fill-opacity="1.000000" fill-rule="nonzero"/>
		<path id="Vector" d="M54.5 7L44.94 1.53L21.32 15.17L30.92 20.66L42.71 13.83L54.5 7Z" fill="#C0A9F0" fill-opacity="1.000000" fill-rule="nonzero"/>
		<path id="Vector" d="M32.89 22.32L32.89 35.61L40.9 30.99L40.9 17.69L32.89 22.32Z" fill="#7421B0" fill-opacity="1.000000" fill-rule="nonzero"/>
		<path id="Vector" d="M31.54 49.99L55.94 35.9C57.15 35.2 58.66 36.08 58.66 37.47L58.66 51.51C58.66 53.5 57.59 55.34 55.87 56.33L31.47 70.42C30.26 71.12 28.75 70.25 28.75 68.85L28.75 54.81C28.75 52.82 29.82 50.98 31.54 49.99Z" fill="#E7DBFF" fill-opacity="1.000000" fill-rule="nonzero"/>
		<path id="Vector" d="M53.99 44.88L33.36 56.86C32.62 57.29 32.02 56.84 32.02 55.85C32.02 54.87 32.62 53.72 33.36 53.3L53.99 41.32C54.73 40.89 55.33 41.34 55.33 42.33C55.33 43.31 54.73 44.45 53.99 44.88Z" fill="#7421B0" fill-opacity="1.000000" fill-rule="nonzero"/>
		<path id="Vector" d="M53.99 52.81L33.36 64.79C32.62 65.22 32.02 64.77 32.02 63.78C32.02 62.8 32.62 61.66 33.36 61.23L53.99 49.25C54.73 48.82 55.33 49.28 55.33 50.26C55.33 51.24 54.73 52.39 53.99 52.81Z" fill="#7421B0" fill-opacity="1.000000" fill-rule="nonzero"/>
	</g>
</svg>
