<svg width="80.000000" height="80.000000" viewBox="0 0 80 80" fill="none" xmlns="http://www.w3.org/2000/svg" xmlns:xlink="http://www.w3.org/1999/xlink">
		<path id="Vector" d="M8.51 33.05L20.35 26.22C21.77 25.4 23.03 23.62 23.46 21.81L27.08 6.76C27.76 3.95 29.58 1.69 31.41 0.64C32.59 -0.04 33.77 -0.22 34.65 0.29L49.9 9.15L54.41 6.55C55.75 5.78 56.85 5.74 57.64 6.2L74.67 16.1C74.62 16.07 74.57 16.04 74.51 16.01C76.48 16.94 76.71 20.76 74.16 24.38L64.6 37.9C63.45 39.53 62.98 41.51 63.42 42.81L67.12 53.63C68.17 56.71 65.63 61.38 62.78 63.02C61.89 63.54 60.97 63.75 60.12 63.54L50.52 61.07C49.94 60.92 49.27 61.07 48.59 61.46C47.91 61.85 47.23 62.48 46.66 63.29L37.1 76.82C36.26 78.02 35.34 78.87 34.45 79.38C33.2 80.1 32.02 80.17 31.16 79.67C31.16 79.67 31.16 79.67 31.16 79.68L14.13 69.78C13.02 69.13 12.46 67.53 13.04 65.12L16.58 50.41L5.25 43.83C2.51 42.23 4.37 35.44 8.51 33.05Z" fill="#FED322" fill-opacity="1.000000" fill-rule="nonzero"/>
		<path id="Vector" d="M74.67 16.1L57.64 6.2C56.85 5.74 55.75 5.78 54.42 6.55L71.45 16.45C72.79 15.68 73.89 15.64 74.67 16.1Z" fill="#E7DBFF" fill-opacity="1.000000" fill-rule="nonzero"/>
		<path id="Vector" d="M14.13 69.78L31.16 79.68C30.06 79.03 29.5 77.43 30.08 75.02L13.04 65.12C12.46 67.53 13.02 69.13 14.13 69.78Z" fill="#C0A9F0" fill-opacity="1.000000" fill-rule="nonzero"/>
		<path id="Vector" d="M71.45 16.45L54.42 6.55L42.58 13.39L59.61 23.29L71.45 16.45Z" fill="#E7DBFF" fill-opacity="1.000000" fill-rule="nonzero"/>
		<path id="Vector" d="M40.24 13.61L57.27 23.51C57.88 23.86 58.71 23.8 59.61 23.29L42.58 13.39C41.68 13.9 40.84 13.96 40.24 13.61Z" fill="#C0A9F0" fill-opacity="1.000000" fill-rule="nonzero"/>
		<path id="Vector" d="M33.7 59.97L16.66 50.07L13.04 65.12L30.08 75.02L33.7 59.97Z" fill="#C0A9F0" fill-opacity="1.000000" fill-rule="nonzero"/>
		<path id="Vector" d="M32.9 56.6L15.87 46.7C16.72 47.2 17.04 48.49 16.66 50.07L33.7 59.97C34.08 58.39 33.76 57.1 32.9 56.6Z" fill="#C0A9F0" fill-opacity="1.000000" fill-rule="nonzero"/>
		<path id="Vector" d="M40.5 31.71L23.46 21.81C23.03 23.62 21.77 25.4 20.35 26.22L37.39 36.12C38.81 35.3 40.06 33.52 40.5 31.71Z" fill="#C0A9F0" fill-opacity="1.000000" fill-rule="nonzero"/>
		<path id="Vector" d="M51.68 10.19L34.65 0.29C33.77 -0.22 32.59 -0.04 31.41 0.64L48.44 10.54C49.63 9.86 50.81 9.68 51.68 10.19Z" fill="#E7DBFF" fill-opacity="1.000000" fill-rule="nonzero"/>
		<path id="Vector" d="M44.12 16.66L27.08 6.76L23.46 21.81L40.5 31.71L44.12 16.66Z" fill="#C0A9F0" fill-opacity="1.000000" fill-rule="nonzero"/>
		<path id="Vector" d="M48.44 10.54L31.41 0.64C29.58 1.69 27.76 3.95 27.08 6.76L44.12 16.66C44.8 13.85 46.62 11.59 48.44 10.54Z" fill="#E7DBFF" fill-opacity="1.000000" fill-rule="nonzero"/>
		<path id="Vector" d="M37.39 36.12L20.35 26.22L8.51 33.05L25.55 42.95L37.39 36.12Z" fill="#E7DBFF" fill-opacity="1.000000" fill-rule="nonzero"/>
		<path id="Vector" d="M5.25 43.83L22.29 53.73C19.55 52.13 21.4 45.34 25.54 42.95L8.51 33.05C4.37 35.44 2.51 42.23 5.25 43.83Z" fill="#E7DBFF" fill-opacity="1.000000" fill-rule="nonzero"/>
		<path id="Vector" d="M48.44 10.54C46.62 11.59 44.8 13.85 44.12 16.66L40.5 31.71C40.06 33.52 38.81 35.3 37.39 36.12L25.55 42.95C21.13 45.5 19.31 53.05 22.89 53.97L32.49 56.44C33.65 56.73 34.13 58.16 33.7 59.97L30.08 75.02C29.05 79.29 31.6 81.03 34.45 79.38C35.34 78.87 36.26 78.02 37.1 76.82L46.66 63.29C47.23 62.48 47.91 61.85 48.59 61.46C49.26 61.07 49.94 60.92 50.52 61.07L60.12 63.54C60.97 63.75 61.89 63.54 62.78 63.02C65.63 61.38 68.16 56.71 67.12 53.63L63.42 42.81C62.98 41.51 63.45 39.53 64.6 37.9L74.16 24.38C77.72 19.33 75.86 13.9 71.45 16.45L59.61 23.29C58.19 24.11 56.93 23.78 56.48 22.48L52.79 11.66C52.1 9.64 50.27 9.49 48.44 10.54Z" fill="#7421B0" fill-opacity="1.000000" fill-rule="nonzero"/>
</svg>
